<svg id="flat" height="512" viewBox="0 0 512 512" width="512" xmlns="http://www.w3.org/2000/svg"><rect fill="#b36f42" height="424" rx="16" width="320" x="95.946" y="56"/><path d="m127.946 88h256v360h-256z" fill="#5771e5"/><path d="m319.94586 200a64 64 0 1 1 -64-64 63.74253 63.74253 0 0 1 64 64z" fill="#a2c1fa"/><path d="m303.94586 224v18.34a64.02065 64.02065 0 0 1 -104-11.33v-7.01a15.99556 15.99556 0 0 1 16-16h72a15.99555 15.99555 0 0 1 16 16z" fill="#ed6445"/><path d="m263.94586 192v36a12 12 0 1 1 -24 0v-36z" fill="#ffceb6"/><path d="m223.94586 56 8.84459-17.68918a25.88852 25.88852 0 0 1 23.1554-14.31082 25.88849 25.88849 0 0 1 23.15539 14.31082l8.84462 17.68918z" fill="#f5a431"/><path d="m343.946 56-24 48h-128l-24-48z" fill="#f7c04a"/><g fill="#3d44d1"><path d="m159.946 280h40v16h-40z"/><path d="m215.946 280h24v16h-24z"/><path d="m351.94586 312h-192a7.99977 7.99977 0 0 0 -8 8v96a7.99977 7.99977 0 0 0 8 8h192a7.99977 7.99977 0 0 0 8-8v-96a7.99977 7.99977 0 0 0 -8-8zm-8 32h-40v-16h40zm-96 0v-16h40v16zm40 16v48h-40v-48zm-56-32v16h-64v-16zm-64 32h64v48h-64zm136 48v-48h40v48z"/></g><path d="m263.94586 192v32a15.9956 15.9956 0 0 1 -16-16v-16z" fill="#ffbfa1"/><path d="m271.94586 184 4.6863-4.68629a11.31371 11.31371 0 0 0 3.3137-8 11.31369 11.31369 0 0 0 -11.31369-11.31371h-12.68631a16 16 0 0 0 -16 16v16l16-8z" fill="#b36f42"/><path d="m255.94588 216a16 16 0 0 1 -16-16v-8l16-8h16v16a16 16 0 0 1 -16 16z" fill="#ffceb6"/></svg>