<svg id="flat" height="512" viewBox="0 0 512 512" width="512" xmlns="http://www.w3.org/2000/svg"><path d="m135.94586 120v-96h-56a32 32 0 0 0 -32 32v64z" fill="#3d44d1"/><path d="m143.94583 488a32 32 0 0 1 -32-32v-400a32 32 0 0 0 -32-32h320a32 32 0 0 1 32 32v408a24 24 0 0 1 -24 24z" fill="#5771e5"/><path d="m143.94586 488h288a32 32 0 0 0 32-32v-40h-288v40a32 32 0 0 1 -32 32z" fill="#89a8f5"/><g fill="#3d44d1"><path d="m151.946 56h48v16h-48z"/><path d="m215.946 56h16v16h-16z"/><path d="m375.946 56h16v16h-16z"/><path d="m343.946 56h16v16h-16z"/><path d="m391.94586 136h-240a7.99977 7.99977 0 0 0 -8 8v224a7.99977 7.99977 0 0 0 8 8h240a7.99977 7.99977 0 0 0 8-8v-224a7.99977 7.99977 0 0 0 -8-8zm-8 48h-48v-32h48zm-112 0v-32h48v32zm48 16v160h-48v-160zm-64-48v32h-96v-32zm-96 48h96v160h-96zm176 160v-160h48v160z"/><path d="m175.946 216h16v16h-16z"/><path d="m207.946 216h32v16h-32z"/><path d="m215.946 104h48v16h-48z"/><path d="m279.946 104h48v16h-48z"/></g></svg>