<svg id="flat" height="512" viewBox="0 0 512 512" width="512" xmlns="http://www.w3.org/2000/svg"><g fill="#a6bce3"><path d="m95.94586 440a8.00008 8.00008 0 0 1 -8-8v-16a8 8 0 0 1 16 0v16a8.00008 8.00008 0 0 1 -8 8z"/><path d="m159.94586 440a8.00008 8.00008 0 0 1 -8-8v-16a8 8 0 0 1 16 0v16a8.00008 8.00008 0 0 1 -8 8z"/><path d="m351.94586 440a8.00008 8.00008 0 0 1 -8-8v-16a8 8 0 0 1 16 0v16a8.00008 8.00008 0 0 1 -8 8z"/><path d="m415.94586 440a8.00008 8.00008 0 0 1 -8-8v-16a8 8 0 0 1 16 0v16a8.00008 8.00008 0 0 1 -8 8z"/><path d="m223.94586 440a8.00008 8.00008 0 0 1 -8-8v-16a8 8 0 0 1 16 0v16a8.00008 8.00008 0 0 1 -8 8z"/><path d="m287.94586 440a8.00008 8.00008 0 0 1 -8-8v-16a8 8 0 0 1 16 0v16a8.00008 8.00008 0 0 1 -8 8z"/></g><path d="m231.946 216h48v72h-48z" fill="#e4e9f2"/><path d="m255.94586 248a8.00008 8.00008 0 0 1 -8-8v-16a8 8 0 1 1 16 0v16a8.00008 8.00008 0 0 1 -8 8z" fill="#cad8ed"/><path d="m23.946 336v96h16l24-96z" fill="#9e593c"/><path d="m23.946 296h464v40h-464z" fill="#b36f42"/><path d="m487.946 336v96h-16l-24-96z" fill="#9e593c"/><rect fill="#5771e5" height="144" rx="16" width="288" x="111.946" y="80"/><circle cx="183.946" cy="152" fill="#f7c04a" r="32"/><path d="m215.94586 152h-32v-32a32.004 32.004 0 0 1 32 32z" fill="#f5a431"/><path d="m255.946 160h32v32h-32z" fill="#308c72"/><path d="m287.946 136h32v56h-32z" fill="#51a37e"/><path d="m319.946 112h32v80h-32z" fill="#5ebd92"/><path d="m127.94582 272h.0001a48 48 0 0 1 48 48v56a0 0 0 0 1 0 0h-96a0 0 0 0 1 0 0v-56a48 48 0 0 1 47.9999-48z" fill="#ed6445"/><path d="m119.946 344h16v72h-16z" fill="#cad8ed"/><path d="m79.946 408h96v16h-96z" fill="#e4e9f2"/><path d="m383.94586 272h.0001a48 48 0 0 1 48 48v56a0 0 0 0 1 0 0h-96a0 0 0 0 1 0 0v-56a48 48 0 0 1 48-48z" fill="#ed6445"/><path d="m375.946 344h16v72h-16z" fill="#cad8ed"/><path d="m335.946 408h96v16h-96z" fill="#e4e9f2"/><path d="m255.94586 272h.0001a48 48 0 0 1 48 48v56a0 0 0 0 1 0 0h-96a0 0 0 0 1 0 0v-56a48 48 0 0 1 47.9999-48z" fill="#ed6445"/><path d="m247.946 344h16v72h-16z" fill="#cad8ed"/><path d="m207.946 408h96v16h-96z" fill="#e4e9f2"/><path d="m231.946 184h144v16h-144z" fill="#89a8f5"/></svg>