<svg id="flat" height="512" viewBox="0 0 512 512" width="512" xmlns="http://www.w3.org/2000/svg"><path d="m167.94586 472v-416a16 16 0 0 1 16-16h288a16 16 0 0 1 16 16v400a16 16 0 0 1 -16 16z" fill="#ed6445"/><path d="m199.946 184v248h192v-120h64v-128z" fill="#6d7eb3"/><path d="m391.946 312h64v120h-64z" fill="#f7c04a"/><path d="m455.94586 256v-16h-56v-56h-16v56h-48v-56h-16v56h-48v-56h-16v56h-56v16h56v48h-56v16h56v48h-56v16h56v48h16v-48h48v48h16v-48h48v48h16v-112h56v-16h-56v-48zm-136 112h-48v-48h48zm0-64h-48v-48h48zm16 64v-48h48v48zm0-64v-48h48v48z" fill="#56679c"/><path d="m431.946 144 16-24v-40h-240v40l16 24z" fill="#96cffa"/><path d="m383.946 112h16v16h-16z" fill="#7ab8f5"/><path d="m407.946 112h16v16h-16z" fill="#7ab8f5"/><path d="m23.946 312h352v160h-352z" fill="#51a37e"/><path d="m327.94586 440a16 16 0 0 1 16-16v-64a16 16 0 0 1 -16-16h-192a16 16 0 0 1 -16 16v64a16 16 0 0 1 16 16z" fill="#90d4b1"/><path d="m23.946 312h64v160h-64z" fill="#308c72"/><path d="m199.946 312h64v160h-64z" fill="#f7c04a"/><g fill="#207868"><path d="m47.946 312h16v56h-16z"/><path d="m47.946 384h16v16h-16z"/><path d="m47.946 416h16v56h-16z"/></g><path d="m167.946 384h32v16h-32z" fill="#5ebd92"/><path d="m263.946 384h32v16h-32z" fill="#5ebd92"/></svg>