<svg id="flat" height="512" viewBox="0 0 512 512" width="512" xmlns="http://www.w3.org/2000/svg"><path d="m479.94586 368v104a16 16 0 0 1 -16 16h-416a16 16 0 0 1 -16-16v-104z" fill="#a6bce3"/><path d="m135.94586 464h-80a24.02687 24.02687 0 0 1 -24-24v-80h16v80a8.00917 8.00917 0 0 0 8 8h80z" fill="#8da4d6"/><path d="m455.94586 464h-304v-16h304a8.00916 8.00916 0 0 0 8-8v-72h16v72a24.02687 24.02687 0 0 1 -24 24z" fill="#8da4d6"/><path d="m479.94586 136v272a16 16 0 0 1 -16 16h-416a16 16 0 0 1 -16-16v-272z" fill="#cad8ed"/><path d="m31.94586 136v-64a16 16 0 0 1 16-16h416a16 16 0 0 1 16 16v64z" fill="#ed6445"/><path d="m479.94586 360h-48a16 16 0 0 0 -16 16v48z" fill="#e4e9f2"/><path d="m111.946 192h16v16h-16z" fill="#89a8f5"/><path d="m151.946 192h16v16h-16z" fill="#89a8f5"/><path d="m191.946 192h16v16h-16z" fill="#89a8f5"/><path d="m231.946 184v48h-144v144h192v-48h144v-144z" fill="#5771e5"/><path d="m303.946 352h16v16h-16z" fill="#89a8f5"/><path d="m343.946 352h16v16h-16z" fill="#89a8f5"/><path d="m383.946 352h16v16h-16z" fill="#89a8f5"/><g fill="#e4e9f2"><rect height="72" rx="16" width="32" x="79.946" y="24"/><rect height="72" rx="16" width="32" x="159.946" y="24"/><rect height="72" rx="16" width="32" x="239.946" y="24"/><rect height="72" rx="16" width="32" x="319.946" y="24"/><rect height="72" rx="16" width="32" x="399.946" y="24"/></g><path d="m415.94586 424 64-64v48a16 16 0 0 1 -16 16z" fill="#cad8ed"/><path d="m423.94586 176h-192a7.99977 7.99977 0 0 0 -8 8v40h-136a7.99977 7.99977 0 0 0 -8 8v144a7.99977 7.99977 0 0 0 8 8h192a7.99977 7.99977 0 0 0 8-8v-40h136a7.99977 7.99977 0 0 0 8-8v-144a7.99977 7.99977 0 0 0 -8-8zm-184 96v-32h176v32zm80 48h-128v-32h128zm-176 0v-32h32v32zm-48 0v-32h32v32zm320-96h-32v-32h32zm-48 0h-80v-32h80zm-128-32h32v32h-32zm-16 80h-32v-32h32zm-48 0h-32v-32h32zm-80-32h32v32h-32zm0 96h128v32h-128zm176 32h-32v-32h32zm64-80h32v32h-32zm80 32h-32v-32h32z" fill="#89a8f5"/></svg>