<svg id="flat" height="512" viewBox="0 0 512 512" width="512" xmlns="http://www.w3.org/2000/svg"><path d="m335.946 128h112v64h-112z" fill="#4356e6"/><path d="m295.946 192h192v296h-192z" fill="#5771e5"/><path d="m23.946 360h288v128h-288z" fill="#51a37e"/><path d="m23.946 360h64v128h-64z" fill="#308c72"/><path d="m175.94579 144h10.74521a32 32 0 0 1 22.62742 9.37258l46.62744 46.62742h40v40h-44.41441a32 32 0 0 1 -20.48588-7.41691l-39.09971-32.58309h-16z" fill="#ed6445"/><path d="m47.94586 312v-128a40 40 0 0 1 40-40h88a16.00007 16.00007 0 0 1 16 16v152z" fill="#ed6445"/><path d="m135.946 184-8-16 15.996-8 16.004 8-8 16z" fill="#f5a431"/><path d="m127.946 240 8-56h16l8 56z" fill="#f7c04a"/><path d="m175.946 360h48v128h-48z" fill="#f7c04a"/><path d="m175.94586 456h-40a16 16 0 0 0 -16-16v-32a16 16 0 0 0 16-16h40z" fill="#90d4b1"/><path d="m47.946 360h16v40h-16z" fill="#207868"/><path d="m47.946 416h16v16h-16z" fill="#207868"/><path d="m47.946 448h16v40h-16z" fill="#207868"/><path d="m151.946 416h24v16h-24z" fill="#5ebd92"/><path d="m223.94586 456h40a16 16 0 0 1 16-16v-32a16 16 0 0 1 -16-16h-40z" fill="#90d4b1"/><path d="m223.946 416h24v16h-24z" fill="#5ebd92"/><g fill="#96cffa"><path d="m319.946 216h24v16h-24z"/><path d="m359.946 216h24v16h-24z"/><path d="m399.946 216h24v16h-24z"/><path d="m359.946 152h24v16h-24z"/><path d="m399.946 152h24v16h-24z"/><path d="m439.946 216h24v16h-24z"/><path d="m319.946 248h24v16h-24z"/><path d="m359.946 248h24v16h-24z"/><path d="m399.946 248h24v16h-24z"/><path d="m439.946 248h24v16h-24z"/><path d="m319.946 280h24v16h-24z"/><path d="m359.946 280h24v16h-24z"/><path d="m399.946 280h24v16h-24z"/><path d="m439.946 280h24v16h-24z"/><path d="m319.946 312h24v16h-24z"/><path d="m319.946 344h24v16h-24z"/><path d="m319.946 376h24v16h-24z"/><path d="m319.946 408h24v16h-24z"/><path d="m319.946 440h24v16h-24z"/><path d="m359.946 312h24v16h-24z"/><path d="m399.946 312h24v16h-24z"/><path d="m439.946 312h24v16h-24z"/><path d="m359.946 344h24v16h-24z"/><path d="m399.946 344h24v16h-24z"/><path d="m439.946 344h24v16h-24z"/><path d="m359.946 376h24v16h-24z"/><path d="m399.946 376h24v16h-24z"/><path d="m439.946 376h24v16h-24z"/><path d="m439.946 408h24v16h-24z"/><path d="m439.946 440h24v16h-24z"/></g><path d="m367.946 416h48v72h-48z" fill="#89a8f5"/><path d="m423.94586 128v-16a28.94424 28.94424 0 0 1 -16-25.88852v-30.11148h-32v30.11147a28.94423 28.94423 0 0 1 -16 25.88852v16z" fill="#3d44d1"/><path d="m383.946 16h16v40h-16z" fill="#6e8beb"/><path d="m199.94583 280h40a16 16 0 0 0 16-16v-24h-24v-10.34318a5.65684 5.65684 0 0 0 -5.65683-5.65682 5.65684 5.65684 0 0 0 -4 1.65685l-14.34314 14.34315h-8z" fill="#ffceb6"/><path d="m199.9459 240h-80l-32-56v-40h-4.14675a43.85329 43.85329 0 0 0 -43.85329 43.85328v.00006a43.85327 43.85327 0 0 0 6.24941 22.56233l32.42891 54.04819a32 32 0 0 0 27.43982 15.53614h93.88187v-40z" fill="#ed6445"/><path d="m47.946 312h144v48h-144z" fill="#56679c"/><path d="m191.94587 288h-85.881a40.00144 40.00144 0 0 1 -34.30068-19.42041l-28.31331-47.18748a8.00046 8.00046 0 0 1 2.74412-10.97663 8.00045 8.00045 0 0 1 10.97649 2.74407l28.31347 47.18811a24.11841 24.11841 0 0 0 20.57904 11.65234h85.88184a8 8 0 0 1 8 8 8 8 0 0 1 -7.99997 8z" fill="#de402f"/><path d="m199.94586 240a8 8 0 0 1 -8 8h-72a8.00057 8.00057 0 0 1 -6.94629-4.03076l-28.03069-49.05372a8.00032 8.00032 0 0 1 2.97701-10.91552 8.00033 8.00033 0 0 1 10.91548 2.977l25.72707 45.023h67.35743a8 8 0 0 1 8 8z" fill="#de402f"/><path d="m164.85211 178.21875-20.90625-13.9375-20.90624 13.9375a7.99983 7.99983 0 0 1 -11.09376-2.21875 7.99982 7.99982 0 0 1 2.21873-11.09374l25.34378-16.896a7.99979 7.99979 0 0 1 8.875 0l25.34379 16.896a7.99983 7.99983 0 0 1 2.21872 11.09374 7.99983 7.99983 0 0 1 -11.09377 2.21875z" fill="#de402f"/><path d="m119.94238 96v40a24 24 0 0 0 24 24 24 24 0 0 0 24-24l.00348-40z" fill="#ffceb6"/><path d="m135.94586 104 2.34633 2.34564a19.312 19.312 0 0 0 13.65366 5.65436 24.004 24.004 0 0 0 23.99974-24.00352c.00024-4.59.00024-7.99647.00024-7.99647h-44.58359a19.41638 19.41638 0 0 0 -19.41638 19.41637 19.41636 19.41636 0 0 0 2.04984 8.68325l5.95016 11.90037z" fill="#b36f42"/></svg>