<svg id="flat" height="512" viewBox="0 0 512 512" width="512" xmlns="http://www.w3.org/2000/svg"><path d="m231.946 72h24v32h-24z" fill="#ffbfa1"/><path d="m351.94586 158.11a25.8799 25.8799 0 0 1 -25.89 25.89h-38.11v32h-104v-51.2l-15.83007-19a35.237 35.237 0 0 1 27.07006-57.8h104.98a32.00062 32.00062 0 0 1 28.62015 17.69l20.42993 40.84a26.00664 26.00664 0 0 1 2.72993 11.58z" fill="#ed6445"/><path d="m263.94586 40v32a16 16 0 0 1 -16 16 16 16 0 0 1 -16-16v-32z" fill="#ffceb6"/><path d="m231.94586 64-5.95015-11.90031a19.41639 19.41639 0 0 1 -2.04985-8.68328 19.41639 19.41639 0 0 1 19.41639-19.41641h36.58361v9.37262a22.62741 22.62741 0 0 1 -22.6274 22.62738 22.62742 22.62742 0 0 1 -16-6.62741l-1.37261-1.37259-8 16z" fill="#b36f42"/><path d="m215.946 456 24 16v16h-72v-24z" fill="#8796c4"/><path d="m335.946 456 24 16v16h-72v-24z" fill="#8796c4"/><path d="m167.94586 464 16-112v-136h104l45.96254 122.56676a32 32 0 0 1 2.03746 11.236v106.19724l-48 8v-112l-48-88v84.35558a32.0001 32.0001 0 0 1 -.81948 7.19551l-23.18052 100.44891z" fill="#445496"/><path d="m262.346 144-6.4-32h-16l-8 40 24-8z" fill="#f7c04a"/><path d="m263.946 96-8 16h-16l-8-16 16-8z" fill="#f5a431"/><path d="m279.94586 112a7.99987 7.99987 0 0 1 -11.2 1.6l-20.8-15.6-20.8 15.6a8 8 0 0 1 -9.6-12.8l17.07-12.8h26.66015l17.07 12.8a8.00555 8.00555 0 0 1 1.59985 11.2z" fill="#de402f"/><path d="m255.94586 144 8.79345-8.79345a24.60469 24.60469 0 0 1 17.39815-7.20655 24.6047 24.6047 0 0 1 11.00356 2.59759l8.51918 4.25959 10.28566 17.14282h-24l-18.46153 12.30769z" fill="#ffceb6"/><g fill="#de402f"><path d="m223.94586 160.00049a7.99714 7.99714 0 0 0 1.94043-.23926l24.23893-6.05973a7.99981 7.99981 0 0 0 5.82069-9.70131l-.00014-.00054a7.99981 7.99981 0 0 0 -9.70123-5.82059l-19.08579 4.77162-16.01315-21.35075a7.99981 7.99981 0 0 0 -11.19964-1.6 7.99981 7.99981 0 0 0 -1.6 11.19979l19.20004 25.60008a8.00014 8.00014 0 0 0 6.39986 3.20069z"/><path d="m318.686 147.68462-19.76446-32.94071a7.99981 7.99981 0 0 0 -10.9755-2.744 7.99981 7.99981 0 0 0 -2.74406 10.97572l12.61449 21.02437h-9.87061a7.996 7.996 0 0 0 -4.4375 1.34375l-34.93261 23.28857a43.88129 43.88129 0 0 1 -53.3644-3.60436 7.95287 7.95287 0 0 0 -10.343-.088 7.98052 7.98052 0 0 0 -.2437 12.08679 59.68782 59.68782 0 0 0 39.61614 14.97325h55.70508a8 8 0 0 0 8-8 8 8 0 0 0 -8-8h-13.57787l24.00025-16h21.57763a8.00655 8.00655 0 0 0 7.69806-5.81291 8.2547 8.2547 0 0 0 -.95794-6.50247z"/></g></svg>