<svg id="flat" height="512" viewBox="0 0 512 512" width="512" xmlns="http://www.w3.org/2000/svg"><path d="m422.57575 94.63v377.37a16.002 16.002 0 0 1 -16 16h-302.62989a15.99556 15.99556 0 0 1 -16-16v-432a15.99552 15.99552 0 0 1 16-16h248a16.09427 16.09427 0 0 1 11.31006 4.69l54.62988 54.62a16.14443 16.14443 0 0 1 4.69 11.32z" fill="#5771e5"/><path d="m192.51156 151.19311-10.1048-10.1048 22.62741-22.62742 10.1048 10.1048a14.53152 14.53152 0 0 0 15.83632 3.15 14.53154 14.53154 0 0 0 8.97055-13.42539v-14.2903h32v14.29034a14.53155 14.53155 0 0 0 8.97056 13.42539 14.53151 14.53151 0 0 0 15.83632-3.15l10.1048-10.1048 22.62748 22.62738-10.1048 10.1048a14.53154 14.53154 0 0 0 -3.15 15.83632 14.53152 14.53152 0 0 0 13.42532 8.97057h14.29034v32h-14.29034a14.53152 14.53152 0 0 0 -13.42538 8.97055 14.53154 14.53154 0 0 0 3.15 15.83632l10.1048 10.1048-22.62742 22.62742-10.1048-10.1048a14.53151 14.53151 0 0 0 -15.83632-3.15 14.53155 14.53155 0 0 0 -8.97056 13.42539v14.29032h-32v-14.29034a14.53154 14.53154 0 0 0 -8.97055-13.42539 14.53152 14.53152 0 0 0 -15.83632 3.15l-10.1048 10.1048-22.62741-22.62742 10.1048-10.1048a14.53156 14.53156 0 0 0 3.15-15.83632 14.53153 14.53153 0 0 0 -13.42535-8.97053h-14.29035v-32h14.29035a14.53153 14.53153 0 0 0 13.42538-8.97055 14.53156 14.53156 0 0 0 -3.15003-15.83634z" fill="#ed6445"/><circle cx="255.946" cy="192" fill="#de402f" r="32"/><path d="m421.12579 88h-46.55a15.99571 15.99571 0 0 1 -16-16v-46.55a15.78306 15.78306 0 0 1 4.68017 3.24l54.62984 54.62a15.82278 15.82278 0 0 1 3.23999 4.69z" fill="#89a8f5"/><path d="m351.946 288h24v24h-24z" fill="#eb8117"/><path d="m295.946 312h16v16h-16z" fill="#f7c04a"/><path d="m375.946 232h16v16h-16z" fill="#f7c04a"/><g fill="#3d44d1"><path d="m175.946 360h24v16h-24z"/><path d="m215.946 360h120v16h-120z"/><path d="m351.946 360h40v16h-40z"/><path d="m127.946 400h120v16h-120z"/><path d="m263.946 400h128v16h-128z"/><path d="m127.946 440h64v16h-64z"/><path d="m207.946 440h96v16h-96z"/><path d="m319.946 440h24v16h-24z"/></g><path d="m255.94586 208a7.97616 7.97616 0 0 1 -5.65722-2.34326l-16-16 11.31445-11.31348 10.34277 10.34326 34.34278-34.34326 11.31445 11.31348-40 40a7.97619 7.97619 0 0 1 -5.65723 2.34326z" fill="#5ebd92"/><path d="m383.94586 328h-56v-16h48v-48h16v56a8.00008 8.00008 0 0 1 -8 8z" fill="#f7c04a"/><path d="m135.946 288h24v24h-24z" fill="#eb8117"/><path d="m199.946 312h16v16h-16z" fill="#f7c04a"/><path d="m119.946 232h16v16h-16z" fill="#f7c04a"/><path d="m127.94586 328h56v-16h-48v-48h-16v56a8.00008 8.00008 0 0 0 8 8z" fill="#f7c04a"/><path d="m135.946 72h24v24h-24z" fill="#eb8117"/><path d="m199.946 56h16v16h-16z" fill="#f7c04a"/><path d="m119.946 136h16v16h-16z" fill="#f7c04a"/><path d="m127.94586 56h56v16h-48v48h-16v-56a8.00008 8.00008 0 0 1 8-8z" fill="#f7c04a"/></svg>