<svg id="flat" height="512" viewBox="0 0 512 512" width="512" xmlns="http://www.w3.org/2000/svg"><path d="m223.94586 136h-32a32 32 0 0 0 -25.6 12.8l-14.4 19.2h-40l-12 24h-24a28 28 0 0 1 -28-28 28 28 0 0 1 28-28h60l7.2-9.6a56 56 0 0 1 44.8-22.4h36z" fill="#f7c04a"/><path d="m111.94587 176h-32a8 8 0 0 1 -8-8 8 8 0 0 1 8-8h32a8 8 0 0 1 8 8 8 8 0 0 1 -8 8z" fill="#f5a431"/><path d="m151.94582 440h208.0001a48 48 0 0 1 48 48 0 0 0 0 1 0 0h-304a0 0 0 0 1 0 0 48 48 0 0 1 47.9999-48z" fill="#f7c04a"/><path d="m327.94586 440-7.15541-14.31084a32 32 0 0 0 -28.62167-17.68916h-72.44578a32 32 0 0 0 -28.62167 17.68916l-7.15547 14.31084z" fill="#f5a431"/><path d="m271.946 144v240l16 24h-64l16-24v-240z" fill="#f7c04a"/><path d="m239.94586 80h32a16 16 0 0 1 16 16v48a0 0 0 0 1 0 0h-64a0 0 0 0 1 0 0v-48a16 16 0 0 1 16-16z" fill="#f5a431"/><path d="m239.94586 80v-40a16 16 0 0 1 16-16 16 16 0 0 1 16 16v40z" fill="#f7c04a"/><path d="m168.79059 299.57764-56.84473-113.689-56.84472 113.689-14.31055-7.15528 64-128a7.99971 7.99971 0 0 1 14.31055 0l64 128z" fill="#f5a431"/><path d="m23.94586 280h176a0 0 0 0 1 0 0v16a56 56 0 0 1 -56 56h-64a56 56 0 0 1 -56-56v-16a0 0 0 0 1 0 0z" fill="#f7c04a"/><path d="m287.94586 136h32a32 32 0 0 1 25.6 12.8l14.4 19.2h40l12 24h24a28 28 0 0 0 28-28 28 28 0 0 0 -28-28h-60l-7.2-9.6a56 56 0 0 0 -44.8-22.4h-36z" fill="#f7c04a"/><path d="m399.94586 176h32a8 8 0 0 0 8-8 8 8 0 0 0 -8-8h-32a8 8 0 0 0 -8 8 8 8 0 0 0 8 8z" fill="#f5a431"/><path d="m343.10114 299.57764 56.84472-113.689 56.84473 113.689 14.31055-7.15528-64-128a7.99971 7.99971 0 0 0 -14.31055 0l-64 128z" fill="#f5a431"/><path d="m367.94586 280h64a56 56 0 0 1 56 56v16a0 0 0 0 1 0 0h-176a0 0 0 0 1 0 0v-16a56 56 0 0 1 56-56z" fill="#f7c04a" transform="matrix(-1 0 0 -1 799.892 632)"/></svg>