<svg id="flat" height="512" viewBox="0 0 512 512" width="512" xmlns="http://www.w3.org/2000/svg"><path d="m431.94586 408v64a16 16 0 0 1 -16 16h-320a16 16 0 0 1 -16-16v-64z" fill="#4356e6"/><rect fill="#5771e5" height="432" rx="16" width="352" x="79.946" y="24"/><g fill="#3d44d1"><path d="m391.94586 208h-272a7.99977 7.99977 0 0 0 -8 8v200a7.99977 7.99977 0 0 0 8 8h272a7.99977 7.99977 0 0 0 8-8v-200a7.99977 7.99977 0 0 0 -8-8zm-8 40h-64v-24h64zm-144 0v-24h64v24zm64 16v144h-64v-144zm-80-40v24h-96v-24zm-96 40h96v144h-96zm192 144v-144h64v144z"/><path d="m143.946 280h48v16h-48z"/><path d="m255.946 280h16v16h-16z"/><path d="m335.946 280h16v16h-16z"/></g><path d="m431.94586 392h-48a16 16 0 0 0 -16 16v48z" fill="#89a8f5"/><path d="m159.946 64h192v112h-192z" fill="#5ebd92"/><path d="m159.946 144h192v32h-192z" fill="#51a37e"/><path d="m199.946 96h32v16h-32z" fill="#51a37e"/><path d="m279.946 96h32v16h-32z" fill="#51a37e"/><path d="m231.946 144h48v32h-48z" fill="#f5a431"/><path d="m231.946 64h48v80h-48z" fill="#f7c04a"/></svg>