<svg id="flat" height="512" viewBox="0 0 512 512" width="512" xmlns="http://www.w3.org/2000/svg"><path d="m428.99591 166.32007-42.52 68.02991a63.08679 63.08679 0 0 1 -91.3501 17.03l-47.17995-35.37998v144h-200v-109.26a69.98574 69.98574 0 0 1 45.97998-122.74h158.79a32.02455 32.02455 0 0 1 20 7.01l71.23 56.99 32-56z" fill="#ed6445"/><path d="m167.946 184 8-16-16-16-16 16 8 16z" fill="#f5a431"/><path d="m151.946 184-6.426 38.557 22.426 17.443 7.636-10.182-7.636-45.818z" fill="#f7c04a"/><path d="m208.05585 128-8.22 49.32007a8.00963 8.00963 0 0 1 -4.91 6.10986 8.16626 8.16626 0 0 1 -2.98.57007 7.98132 7.98132 0 0 1 -4.8-1.6001l-27.19999-20.3999-27.2 20.3999a7.9922 7.9922 0 0 1 -12.69-5.08984l-8.21998-49.31006h16.22l5.62 33.7 21.47-16.1a8.00994 8.00994 0 0 1 9.6 0l21.47 16.1 5.62-33.7z" fill="#de402f"/><path d="m375.946 136 53.052 30.316 26.457-42.331h-72.643z" fill="#ffceb6"/><path d="m183.946 80v48l-24 24-24-24v-48z" fill="#ffceb6"/><path d="m183.94586 80v48l-.01.01h-7.99a32.00619 32.00619 0 0 1 -32-32.01v-16z" fill="#ffbfa1"/><path d="m135.94238 39.99457v48.00372a32.00171 32.00171 0 0 0 32.00171 32.00171h.00006a32.00171 32.00171 0 0 0 32.00171-32.00171v-47.99829z" fill="#ffceb6"/><path d="m159.94586 48 7.71574 7.71574a28.28425 28.28425 0 0 0 20 8.28426 28.28424 28.28424 0 0 0 28.28424-28.28424v-11.71576h-68.5836a19.41638 19.41638 0 0 0 -19.41638 19.41637 19.41636 19.41636 0 0 0 2.04984 8.68325l5.95016 11.90038z" fill="#b36f42"/><path d="m255.94586 104h-56a24 24 0 0 1 -24-24 24 24 0 0 1 24-24h56z" fill="#eb8117"/><path d="m327.94586 40h-56a40 40 0 0 0 -40 40 40 40 0 0 0 40 40h56z" fill="#f5a431"/><path d="m431.94586 136h-80a56 56 0 0 1 -56-55.99994v-.00012a56 56 0 0 1 56-55.99994h80" fill="#f7c04a"/><circle cx="431.946" cy="80" fill="#96cffa" r="48"/><path d="m431.94586 40a40 40 0 1 1 -40 40 40.04536 40.04536 0 0 1 40-40m0-16a56 56 0 1 0 56 56 56 56 0 0 0 -56-56z" fill="#f5a431"/><path d="m47.94569 250.74169q1.34046 1.16823 2.74686 2.27356l65.498 51.46275a72.64078 72.64078 0 0 0 44.87908 15.522h.00006a72.64079 72.64079 0 0 0 60.44079-32.34693l86.82252-130.23372-51.08477-36.48912-89.30237 119.06977-72-56z" fill="#ed6445"/><path d="m127.946 496 32-80v80h88v-136h-200v136z" fill="#445496"/><path d="m257.24819 120.93024 51.08481 36.48912 32.5205-48.78075a18.41268 18.41268 0 0 0 3.0924-10.21351 18.41267 18.41267 0 0 0 -8.93943-15.78874l-31.06061-18.63636-16 32-5.26686-10.53375a9.88854 9.88854 0 0 0 -8.84459-5.46625 9.88854 9.88854 0 0 0 -9.88854 9.88853v22.11147l-6.69767 8.93023z" fill="#ffceb6"/><g fill="#de402f"><path d="m167.94586 248a8.00113 8.00113 0 0 1 -4.91162-1.68506l-65.68533-51.08859a7.9998 7.9998 0 0 1 -1.40326-11.22607l.00042-.00055a7.99981 7.99981 0 0 1 11.22608-1.40326l59.25858 46.09 79.61765-106.1564a7.9998 7.9998 0 0 1 11.19964-1.6 7.9998 7.9998 0 0 1 1.6 11.19978l-84.50225 112.66995a7.99936 7.99936 0 0 1 -6.39991 3.2002z"/><path d="m161.06989 328a80.99471 80.99471 0 0 1 -49.82178-17.23145l-61.96605-48.79255a7.99985 7.99985 0 0 1 -1.33606-11.23444 7.99986 7.99986 0 0 1 11.23421-1.33605l61.95951 48.78738a64.64114 64.64114 0 0 0 93.71436-14.97754l82.38525-123.57718a7.99981 7.99981 0 0 1 11.09373-2.21873 7.99981 7.99981 0 0 1 2.21874 11.09375l-82.38523 123.57714a80.47724 80.47724 0 0 1 -67.09668 35.90967z"/></g></svg>