<svg id="flat" height="512" viewBox="0 0 512 512" width="512" xmlns="http://www.w3.org/2000/svg"><path d="m48 392.032h416v64h-416z" fill="#cad8ed"/><path d="m216 392.032h80v64h-80z" fill="#96cffa"/><path d="m32 64.032h448v256h-448z" fill="#e4e9f2"/><path d="m64 96.032h384v224h-384z" fill="#96cffa"/><path d="m280 144.03212h-40v-48h-16v48h-40v-48h-16v48h-40v-48h-16v48h-48v16h48v40h-48v16h48v40h-48v16h48v48h16v-48h40v48h16v-48h40v48h16v-48h48v-16h-48v-40h48v-16h-48v-40h48a7.99977 7.99977 0 0 0 8-8v-56h-16zm-152 16h40v40h-40zm0 96v-40h40v40zm96 0h-40v-40h40zm0-56h-40v-40h40z" fill="#7ab8f5"/><path d="m336 96.032h16v56h-16z" fill="#7ab8f5"/><path d="m392 96.032h16v56h-16z" fill="#7ab8f5"/><path d="m24 360.032h464v32h-464z" fill="#e4e9f2" transform="matrix(-1 0 0 -1 512 752.064)"/><path d="m24 456.032h464v32h-464z" fill="#e4e9f2" transform="matrix(-1 0 0 -1 512 944.064)"/><path d="m408 416.032h24v16h-24z" fill="#96cffa"/><path d="m368 416.032h24v16h-24z" fill="#96cffa"/><path d="m328 416.032h24v16h-24z" fill="#96cffa"/><path d="m248 392.032h16v64h-16z" fill="#7ab8f5"/><path d="m480 320.032v-168h-192v168" fill="#e4e9f2"/><path d="m376 176.032h16v32h-16z" fill="#a6bce3"/><path d="m376 232.032h16v32h-16z" fill="#a6bce3"/><path d="m376 288.032h16v32h-16z" fill="#a6bce3"/><path d="m440 176.032h16v24h-16z" fill="#96cffa"/><path d="m312 176.032h16v24h-16z" fill="#96cffa"/><path d="m440 224.032h16v24h-16z" fill="#96cffa"/><path d="m312 224.032h16v24h-16z" fill="#96cffa"/><path d="m440 272.032h16v24h-16z" fill="#96cffa"/><path d="m312 272.032h16v24h-16z" fill="#96cffa"/><path d="m48 64.032 32-40h352l32 40z" fill="#5771e5"/><path d="m408 152.03212v48h-48v-48h-16v168h16v-48h48v48h16v-168zm-48 104v-40h48v40z" fill="#cad8ed"/><path d="m32 320.032h448v40h-448z" fill="#cad8ed"/><g fill="#b3c7e8"><path d="m440 320.032h16v40h-16z"/><path d="m408 320.032h16v40h-16z"/><path d="m376 320.032h16v40h-16z"/><path d="m344 320.032h16v40h-16z"/><path d="m312 320.032h16v40h-16z"/><path d="m280 320.032h16v40h-16z"/><path d="m248 320.032h16v40h-16z"/><path d="m216 320.032h16v40h-16z"/><path d="m184 320.032h16v40h-16z"/><path d="m152 320.032h16v40h-16z"/><path d="m120 320.032h16v40h-16z"/><path d="m88 320.032h16v40h-16z"/><path d="m56 320.032h16v40h-16z"/></g><path d="m231.95 360.00209v43.62a60.37551 60.37551 0 0 1 -32 53.30994v39.07007h-144v-35.90992a51.79123 51.79123 0 0 1 -32-47.87012v-52.22a31.99127 31.99127 0 0 1 32-32h144a31.9976 31.9976 0 0 1 32 32.00003z" fill="#ed6445"/><path d="m171.57275 471.99989a68.07223 68.07223 0 0 1 -25.39306-4.89014l-29.20508-11.68213 5.94238-14.85546 29.20508 11.68212a52.45306 52.45306 0 0 0 37.64778.49347 8.03689 8.03689 0 0 1 9.91819 3.70006 8.01272 8.01272 0 0 1 -4.30473 11.28167 68.689 68.689 0 0 1 -23.81056 4.27041z" fill="#de402f"/><path d="m75.72314 471.99989a59.807 59.807 0 0 1 -14.008-1.64862 8.05242 8.05242 0 0 1 -5.49889-10.91633 7.97367 7.97367 0 0 1 9.29313-4.62873 43.94828 43.94828 0 0 0 29.79137-3.42788l45.91212-22.95606a7.99984 7.99984 0 0 1 10.7329 3.57763 7.99982 7.99982 0 0 1 -3.57763 10.7329l-45.91212 22.95606a60.07814 60.07814 0 0 1 -26.73288 6.31103z" fill="#de402f"/><path d="m136.19983 392.63492 19.7724-7.19a23.99986 23.99986 0 0 1 8.20183-1.44492h19.7718v32l-32 16z" fill="#ffceb6"/><rect fill="#de402f" height="56" rx="8" width="16" x="175.946" y="360"/><path d="m127.94586 395.63636-28.02636-10.19136a23.99992 23.99992 0 0 0 -8.20184-1.445h-19.7718v32z" fill="#ffceb6"/><path d="m135.946 360 8-16-16-8-16 8 8 16z" fill="#f5a431"/><path d="m119.946 360-7.5 30 15.5 5.636 15.5-5.636-7.5-30z" fill="#f7c04a"/><path d="m71.94629 423.99989a8.03273 8.03273 0 0 1 -6.42114-3.21546 8.23075 8.23075 0 0 1 -1.57938-4.98169v-47.80286a8 8 0 0 1 8-8 8 8 0 0 1 8 8v36.57862l46.00141-16.72786a8.00014 8.00014 0 0 1 10.25253 4.7846 8.00015 8.00015 0 0 1 -4.78457 10.25237l-56.73545 20.63084a7.999 7.999 0 0 1 -2.7334.48144z" fill="#de402f"/><path d="m159.95 352.00209a8.01528 8.01528 0 0 1 -11.1 2.22l-20.9-13.93994-20.91 13.93991a8.00434 8.00434 0 0 1 -8.88013-13.32l19.36011-12.9h20.85l19.36 12.9a8.01274 8.01274 0 0 1 2.22002 11.10003z" fill="#de402f"/><path d="m143.94586 288v32a16 16 0 0 1 -16 16 16 16 0 0 1 -16-16v-32z" fill="#ffceb6"/><path d="m111.94588 312-5.95016-11.90031a19.41648 19.41648 0 0 1 -2.04984-8.68328 19.41639 19.41639 0 0 1 19.41639-19.41641h36.58361v9.37262a22.6274 22.6274 0 0 1 -22.62741 22.62738 22.6274 22.6274 0 0 1 -16-6.62741l-1.37261-1.37259-8 16z" fill="#b36f42"/></svg>