<svg id="flat" height="512" viewBox="0 0 512 512" width="512" xmlns="http://www.w3.org/2000/svg"><g fill="#f7d179"><path d="m247.973 176.032h16v79.968h-16z"/><path d="m247.973 288h16v84.043h-16z"/><path d="m111.946 264h128v16h-128z"/><path d="m87.973 288h16v84.043h-16z"/><path d="m271.946 264h128v16h-128z"/><path d="m407.973 288h16v84.043h-16z"/></g><path d="m159.95 424.00209a64 64 0 1 1 -64-64 63.7805 63.7805 0 0 1 64 64z" fill="#89a8f5"/><path d="m143.95 448.00209v18.32007a63.99845 63.99845 0 0 1 -104-11.32007v-7a15.99555 15.99555 0 0 1 16-16h72a16.002 16.002 0 0 1 16 16z" fill="#308c72"/><path d="m103.95 416.06215v35.93994a12 12 0 1 1 -24 0v-35.97l8.05.01z" fill="#ffceb6"/><path d="m103.95 416.06215v31.93994h-3.95a11.99677 11.99677 0 0 1 -12-12v-19.96z" fill="#ffbfa1"/><path d="m335.95 104.00209a80.04321 80.04321 0 0 1 -64.5 78.5 80.83333 80.83333 0 0 1 -31 0 80.00718 80.00718 0 1 1 95.5-78.5z" fill="#89a8f5"/><path d="m95.94588 440a16 16 0 0 1 -16-16v-8l16-8h16v16a16 16 0 0 1 -16 16z" fill="#ffceb6"/><path d="m111.94586 408 4.6863-4.68629a11.31371 11.31371 0 0 0 3.3137-8 11.31369 11.31369 0 0 0 -11.31369-11.31371h-12.68631a16 16 0 0 0 -16 16v16l16-8z" fill="#b36f42"/><path d="m311.95 136.00209v25.13a79.76921 79.76921 0 0 1 -40.5 21.37 80.83333 80.83333 0 0 1 -31 0 79.77121 79.77121 0 0 1 -40.5-21.37v-25.13a15.99555 15.99555 0 0 1 16-16h80a16.002 16.002 0 0 1 16 16z" fill="#ed6445"/><path d="m263.95 160.00209 7.5 22.5a80.83333 80.83333 0 0 1 -31 0l7.5-22.5z" fill="#f7c04a"/><path d="m247.95 160.002-8-16 16-16 16 16-8 16z" fill="#f5a431"/><path d="m276.74656 153.59991-20.80027-15.6-20.80027 15.6a7.99982 7.99982 0 0 1 -11.19977-1.60007 7.99982 7.99982 0 0 1 1.6-11.19967l25.60023-19.20017a7.998 7.998 0 0 1 9.59961 0l25.60023 19.20016a7.99982 7.99982 0 0 1 1.6 11.19967 7.99982 7.99982 0 0 1 -11.19976 1.60008z" fill="#de402f"/><path d="m271.94585 80.03212v15.96788 16a16 16 0 0 1 -16 16 16 16 0 0 1 -16-16v-31.96789z" fill="#ffceb6"/><path d="m239.94586 104-5.95015-11.90031a19.41639 19.41639 0 0 1 -2.04985-8.68328 19.41639 19.41639 0 0 1 19.41639-19.41641h36.58361v9.37262a22.62741 22.62741 0 0 1 -22.6274 22.62738 22.62742 22.62742 0 0 1 -16-6.62741l-1.37261-1.37259-8 16z" fill="#b36f42"/><path d="m320 424.00209a64 64 0 1 1 -64-64 63.7805 63.7805 0 0 1 64 64z" fill="#89a8f5"/><path d="m304 448.00209v18.32007a63.99845 63.99845 0 0 1 -104-11.32007v-7a15.99555 15.99555 0 0 1 16-16h72a16.002 16.002 0 0 1 16 16z" fill="#308c72"/><path d="m264 416.06215v35.93994a12 12 0 1 1 -24 0v-35.97l8.05.01z" fill="#ffceb6"/><path d="m264 416.06215v31.93994h-3.95a11.99677 11.99677 0 0 1 -12-12v-19.96z" fill="#ffbfa1"/><path d="m255.99593 440a16 16 0 0 1 -16-16v-8l16-8h16v16a16 16 0 0 1 -16 16z" fill="#ffceb6"/><path d="m271.99591 408 4.6863-4.68629a11.31371 11.31371 0 0 0 3.3137-8 11.31369 11.31369 0 0 0 -11.3137-11.31371h-12.6863a16 16 0 0 0 -16 16v16l16-8z" fill="#b36f42"/><path d="m480 424.00209a64 64 0 1 1 -64-64 63.7805 63.7805 0 0 1 64 64z" fill="#89a8f5"/><path d="m464 448.00209v18.32007a63.99845 63.99845 0 0 1 -104-11.32007v-7a15.99555 15.99555 0 0 1 16-16h72a16.002 16.002 0 0 1 16 16z" fill="#308c72"/><path d="m424 416.06215v35.93994a12 12 0 1 1 -24 0v-35.97l8.05.01z" fill="#ffceb6"/><path d="m424 416.06215v31.93994h-3.95a11.99677 11.99677 0 0 1 -12-12v-19.96z" fill="#ffbfa1"/><path d="m415.99593 440a16 16 0 0 1 -16-16v-8l16-8h16v16a16 16 0 0 1 -16 16z" fill="#ffceb6"/><path d="m431.99591 408 4.6863-4.68629a11.31371 11.31371 0 0 0 3.3137-8 11.31369 11.31369 0 0 0 -11.3137-11.31371h-12.6863a16 16 0 0 0 -16 16v16l16-8z" fill="#b36f42"/><circle cx="255.946" cy="272" fill="#f7c04a" r="16"/><path d="m255.94629 296a24 24 0 1 1 24-24 24.02718 24.02718 0 0 1 -24 24zm0-32a8 8 0 1 0 8 8 8.00917 8.00917 0 0 0 -8-8z" fill="#fcedc0"/><circle cx="95.946" cy="272" fill="#f7c04a" r="16"/><path d="m95.94629 296a24 24 0 1 1 24-24 24.02718 24.02718 0 0 1 -24 24zm0-32a8 8 0 1 0 8 8 8.00917 8.00917 0 0 0 -8-8z" fill="#fcedc0"/><circle cx="415.946" cy="272" fill="#f7c04a" r="16"/><path d="m415.94629 296a24 24 0 1 1 24-24 24.02718 24.02718 0 0 1 -24 24zm0-32a8 8 0 1 0 8 8 8.00917 8.00917 0 0 0 -8-8z" fill="#fcedc0"/></svg>