<svg id="flat" height="512" viewBox="0 0 512 512" width="512" xmlns="http://www.w3.org/2000/svg"><path d="m496 496.03212-56.0498-.03-64-120v120h-240.0002l.05-272h228.12012a55.99243 55.99243 0 0 1 50.83984 32.53l28.49024 61.72 52.5 113.75z" fill="#ffceb6"/><path d="m443.4502 318.25209-67.5 33.75v144h-240.0002l.05-272h228.12012a55.99243 55.99243 0 0 1 50.83984 32.53z" fill="#ed6445"/><path d="m115.26 353.65211-19.31 46.34998 40 96h-80l-19.93-44.83997a140.09538 140.09538 0 0 1 -2.55-107.65l10.01-25.74 22.58006-58.07012a56.0053 56.0053 0 0 1 52.18994-35.69991h17.75l-.05 80z" fill="#ffceb6"/><rect fill="#de402f" height="48.032" rx="8" width="16" x="367.946" y="304"/><path d="m152 224.03212v80l-16.05-.03-20.68994 49.65-71.78-35.88 22.58-58.07012a56.0053 56.0053 0 0 1 52.18994-35.69991z" fill="#ed6445"/><path d="m191.94531 311.99989a8.0002 8.0002 0 0 1 -7.999-8v-80h16v62.606l42.792-36.67969a7.99939 7.99939 0 0 1 10.41211-.00049l42.79688 36.68115v-62.60697h16v80a8 8 0 0 1 -13.20606 6.07422l-50.79492-43.5376-50.79395 43.5376a7.99825 7.99825 0 0 1 -5.20706 1.92578z" fill="#de402f"/><path d="m201.06884 198.28722a8 8 0 0 1 8 8v171.45755a8 8 0 0 1 -8 8 8 8 0 0 1 -8-8v-171.45753a8 8 0 0 1 8-8z" fill="#56679c" transform="matrix(.811 -.585 .585 .811 -132.906 173.009)"/><path d="m255.93945 376.00038a8.00093 8.00093 0 0 1 -6.47851-12.68457l104-144a8 8 0 0 1 12.9707 9.36816l-104 144a7.99042 7.99042 0 0 1 -6.49219 3.31641z" fill="#56679c"/><path d="m183.946 352h144v104h-144z" fill="#f7c04a"/><g fill="#fcedc0"><path d="m207.946 416h16v16h-16z"/><path d="m239.946 416h16v16h-16z"/><path d="m271.946 416h16v16h-16z"/><path d="m207.946 384h64v16h-64z"/><path d="m287.946 384h16v16h-16z"/></g><path d="m287.95 160.032v63.97l-25.2 20.15-14.81 11.85-39.99-32v-64l16.05.01z" fill="#ffceb6"/><path d="m287.9502 160.03212v63.97l-25.2002 20.15a60.00725 60.00725 0 0 1 -38.75-56.12v-28.02z" fill="#ffbfa1"/><path d="m327.94586 48v116.00006a59.99994 59.99994 0 0 1 -59.99994 59.99994h-.00012a59.99994 59.99994 0 0 1 -59.99994-59.99994v-115.96794z" fill="#ffceb6"/><path d="m271.94629 167.99989h-8v-16h8a8.00917 8.00917 0 0 0 8-8v-16h16v16a24.02718 24.02718 0 0 1 -24 24z" fill="#ffb089"/><circle cx="255.946" cy="120" fill="#b36f42" r="8"/><circle cx="303.946" cy="120" fill="#b36f42" r="8"/><path d="m287.94629 191.99989h-20.68652a35.08123 35.08123 0 0 1 -24.97071-10.34326l11.31446-11.31348a19.18424 19.18424 0 0 0 13.65625 5.65674h20.68652z" fill="#ffb089"/><path d="m190.19527 90.41567 17.75059 29.58433 32-56 15.43148 15.43147a56.56846 56.56846 0 0 0 40 16.56852h.00008a56.56848 56.56848 0 0 0 56.56844-56.56849v-15.4315h-124.14671a43.85329 43.85329 0 0 0 -43.85329 43.85329v.00005a43.85322 43.85322 0 0 0 6.24941 22.56233z" fill="#b36f42"/></svg>