<svg id="flat" height="512" viewBox="0 0 512 512" width="512" xmlns="http://www.w3.org/2000/svg"><g fill="#ed6445"><path d="m248 200.032h48v64h-48z"/><path d="m296 200.032h48v64h-48z"/><path d="m344 200.032h48v64h-48z"/><path d="m392 200.032h48v64h-48z"/></g><path d="m200 264.032h288v160h-288z" fill="#51a37e"/><path d="m440 392.03212a16 16 0 0 1 16-16v-64a16 16 0 0 1 -16-16h-192a16 16 0 0 1 -16 16v64a16 16 0 0 1 16 16z" fill="#90d4b1"/><path d="m176 496.03212v-88l24 20v-60l-6.62745-6.62744a32 32 0 0 0 -22.62741-9.37259h-102.89185a43.85329 43.85329 0 0 0 -43.85329 43.85329v.00006a43.85336 43.85336 0 0 0 6.2494 22.56233l1.7506 2.91768v74.66669z" fill="#ed6445"/><path d="m120 392.032-8-16 15.997-8 16.003 8-8 16z" fill="#f5a431"/><path d="m112 448.032 8-56h16l8 56z" fill="#f7c04a"/><path d="m72 392.03209 32 56h80v40h-93.88191a32 32 0 0 1 -27.43977-15.53609l-30.67832-51.13055z" fill="#ed6445"/><path d="m280 336.032h32v16h-32z" fill="#5ebd92"/><path d="m376 336.032h32v16h-32z" fill="#5ebd92"/><path d="m200 424.032h288v64h-288z" fill="#308c72"/><path d="m432 448.032h32v16h-32z" fill="#207868"/><path d="m376 448.032h40v16h-40z" fill="#207868"/><path d="m264 448.032h48v16h-48z" fill="#207868"/><path d="m176 496.03212h-85.88253a39.9992 39.9992 0 0 1 -34.29911-19.41992l-26.56258-44.2714a7.9997 7.9997 0 0 1 2.74368-10.97535l.0006-.00036a7.99971 7.99971 0 0 1 10.97574 2.74378l26.56233 44.271a24.00018 24.00018 0 0 0 20.58 11.65228h85.88187a8 8 0 0 1 8 8 8 8 0 0 1 -8 7.99997z" fill="#de402f"/><path d="m184 448.03213a8 8 0 0 1 -8 8h-72a7.99863 7.99863 0 0 1 -6.9458-4.03125l-28.03091-49.0541a7.9997 7.9997 0 0 1 2.97693-10.91478 7.99971 7.99971 0 0 1 10.91443 2.97681l25.72792 45.02333h67.35743a8 8 0 0 1 8 8z" fill="#de402f"/><path d="m148.90614 386.25223-20.90907-13.93691-20.90333 13.93555a7.99981 7.99981 0 0 1 -11.09374-2.21875 7.9998 7.9998 0 0 1 2.21874-11.09374l25.34115-16.8941a7.99924 7.99924 0 0 1 8.8737-.00043l25.34687 16.8943a7.99981 7.99981 0 0 1 2.21993 11.09339l-.00053.0008a7.99981 7.99981 0 0 1 -11.09372 2.21989z" fill="#de402f"/><path d="m104 304.03212-.00348 40a24 24 0 0 0 24 24h.00005a24 24 0 0 0 24-24v-40.00544z" fill="#ffceb6"/><path d="m120 312.03212 2.34633 2.34564a19.312 19.312 0 0 0 13.65367 5.65435 24.004 24.004 0 0 0 23.99974-24.00352c.00024-4.59.00024-7.99647.00024-7.99647h-44.58361a19.41637 19.41637 0 0 0 -19.41637 19.41637 19.41627 19.41627 0 0 0 2.04984 8.68326l5.95016 11.90037z" fill="#b36f42"/><path d="m184 448.03209h8l14.34315-14.34309a5.65681 5.65681 0 0 1 4-1.65686 5.65685 5.65685 0 0 1 5.65685 5.6568v10.34315h24v24a16 16 0 0 1 -16 16h-40z" fill="#ffceb6"/><path d="m312 264.032h64v160h-64z" fill="#f7c04a"/><path d="m312 424.032h64v64h-64z" fill="#f5a431"/><path d="m400 264.03212h-16v-56a8 8 0 0 1 8-8 8 8 0 0 1 8 8z" fill="#de402f"/><path d="m352 264.03212h-16v-56a8 8 0 0 1 8-8 8 8 0 0 1 8 8z" fill="#de402f"/><path d="m304 264.03212h-16v-56a8 8 0 0 1 8-8 8 8 0 0 1 8 8z" fill="#de402f"/><circle cx="272" cy="200.032" fill="#f79a7e" r="24"/><circle cx="320" cy="200.032" fill="#f79a7e" r="24"/><circle cx="368" cy="200.032" fill="#f79a7e" r="24"/><circle cx="416" cy="200.032" fill="#f79a7e" r="24"/><path d="m422.192 194.967-70.192-85.79v-29.145h-16v29.145l-70.192 85.79 12.384 10.131 48.201-58.913-14.111 51.743 15.436 4.209 16.282-59.7 16.282 59.7 15.436-4.209-14.111-51.743 48.201 58.913z" fill="#cad8ed"/><path d="m296 72.032 24 8-8 24 24-8 8 24 8-24 24 8-8-24 24-8-24-8 8-24-24 8-8-24-8 24-24-8 8 24z" fill="#f7c04a"/></svg>