<svg id="flat" height="512" viewBox="0 0 512 512" width="512" xmlns="http://www.w3.org/2000/svg"><path d="m24 72.03212h464v400a16 16 0 0 1 -16 16h-432a16 16 0 0 1 -16-16z" fill="#5771e5"/><path d="m288 132.791h16v62.482h-16z" fill="#f7d179" transform="matrix(.64 -.768 .768 .64 -19.508 286.415)"/><path d="m432 232.032h16v16h-16z" fill="#f7d179"/><path d="m416 248.03212h-32a8.00008 8.00008 0 0 1 -5.12158-1.8545l-48-40 10.24316-12.291 45.7749 38.14551h29.10352z" fill="#f7d179"/><path d="m228 86.42h16v51.225h-16z" fill="#f7d179" transform="matrix(.625 -.781 .781 .625 1.09 226.331)"/><path d="m24 72.03211v-32a16 16 0 0 1 16-16h432a16 16 0 0 1 16 16v32z" fill="#89a8f5"/><path d="m88 112.032h48v216h-48z" fill="#f7dfa1"/><path d="m136 144.032h48v184h-48z" fill="#f7d179"/><path d="m184 176.032h48v152h-48z" fill="#f7c04a"/><path d="m232 208.032h48v120h-48z" fill="#f5a431"/><path d="m280 240.032h48v88h-48z" fill="#eb8117"/><path d="m328 264.032h48v64h-48z" fill="#e8671c"/><path d="m376 288.032h48v40h-48z" fill="#d64e13"/><path d="m64 320.032h384v16h-384z" fill="#89a8f5"/><g fill="#3d44d1"><path d="m64 368.032h24v16h-24z"/><path d="m104 368.032h112v16h-112z"/><path d="m64 400.032h72v16h-72z"/><path d="m152 400.032h16v16h-16z"/><path d="m64 432.032h144v16h-144z"/><path d="m224 432.032h112v16h-112z"/><path d="m352 432.032h24v16h-24z"/></g><circle cx="264" cy="136.032" fill="#f7c04a" r="16"/><path d="m264 160.03223a24 24 0 1 1 24-24 24.02719 24.02719 0 0 1 -24 24zm0-32a8 8 0 1 0 8 8 8.00916 8.00916 0 0 0 -8-8z" fill="#fcedc0"/><circle cx="328" cy="192.032" fill="#f7c04a" r="16"/><path d="m328 216.03223a24 24 0 1 1 24-24 24.02719 24.02719 0 0 1 -24 24zm0-32a8 8 0 1 0 8 8 8.00916 8.00916 0 0 0 -8-8z" fill="#fcedc0"/><circle cx="48" cy="48.032" fill="#ed6445" r="8"/><circle cx="72" cy="48.032" fill="#f7c04a" r="8"/><circle cx="96" cy="48.032" fill="#90d4b1" r="8"/></svg>