<svg id="flat" height="512" viewBox="0 0 512 512" width="512" xmlns="http://www.w3.org/2000/svg"><path d="m292.12 216.03212v48h-28.96009a32.00026 32.00026 0 0 1 -24.75989-11.74l-62.4-76.26v136h-136.00002v-92l-4.32007-5.39991a53.30263 53.30263 0 0 1 41.62012-86.60009h95.74a40.006 40.006 0 0 1 30.95995 14.66988l60 73.33008z" fill="#ed6445"/><path d="m292.118 216.032h43.882v48h-43.882z" fill="#ffceb6"/><path d="m184 280.03212h54.11147a9.88854 9.88854 0 0 0 9.88853-9.88854 9.88854 9.88854 0 0 0 -5.46625-8.84458l-26.53375-13.26688 6.25905-6.25905a9.929 9.929 0 0 0 -2.58049-15.90167 9.929 9.929 0 0 0 -7.58022-.53871l-20.09834 6.69943h-8z" fill="#ffceb6"/><path d="m452.11182 184.03212h35.88818v-64h-35.88818a6.1541 6.1541 0 0 1 -4.35157-10.50562l25.377-25.37671-45.25493-45.25479-25.37646 25.37662a6.15484 6.15484 0 0 1 -6.707 1.33411v-.00013a6.15407 6.15407 0 0 1 -3.79886-5.68554v-35.88794h-64v35.88794a6.15407 6.15407 0 0 1 -3.79883 5.68554v.00013a6.15484 6.15484 0 0 1 -6.707-1.33411l-25.37649-25.37662-45.25489 45.25479 25.377 25.37671a6.1541 6.1541 0 0 1 -4.35157 10.50562h-35.88822v64h35.88818a6.15406 6.15406 0 0 1 4.35157 10.50561l-25.377 25.37671 45.25489 45.25476 25.37646-25.37659a6.15411 6.15411 0 0 1 10.5059 4.35157v35.88794h64v-35.88794a6.15411 6.15411 0 0 1 10.50586-4.35157l25.37646 25.37659 45.25489-45.25476-25.377-25.37671a6.15406 6.15406 0 0 1 4.35157-10.50561zm-92.11182 8a40 40 0 1 1 40-40 40.0001 40.0001 0 0 1 -40 40z" fill="#51a37e"/><path d="m88 496.032 32-136v136h56v-184h-136v184z" fill="#445496"/><path d="m40 220.03214 38.39218 47.99022a32 32 0 0 0 24.98782 12.00976h80.62v-48h-64l-40-48z" fill="#ed6445"/><path d="m184 280.0323a7.99982 7.99982 0 0 1 -7.99982 7.99982h-72.6203a39.80578 39.80578 0 0 1 -31.23488-15.01172l-33.39446-41.74406a7.99981 7.99981 0 0 1 1.24977-11.24447 7.99983 7.99983 0 0 1 11.24391 1.24965l33.39493 41.74377a23.88411 23.88411 0 0 0 18.74072 9.00684h72.6203a7.99982 7.99982 0 0 1 7.99983 7.99981z" fill="#de402f"/><path d="m128 160.032 8-16-16.003-8-15.997 8 8 16z" fill="#f5a431"/><path d="m112 160.032-6.117 55.06 14.117 16.94h15.999l-7.999-72z" fill="#f7c04a"/><path d="m160.00134 161.06041a7.99721 7.99721 0 0 1 -11.22188 1.4188l-28.85953-22.387-28.72219 21.54155a7.99721 7.99721 0 0 1 -11.196-1.59936l-.00352-.0047a7.9972 7.9972 0 0 1 1.59908-11.19594l27.73281-20.80164h21.13989l28.11314 21.80945a7.99721 7.99721 0 0 1 1.4182 11.21884z" fill="#de402f"/><path d="m96 72.03212-.00348 40a24 24 0 0 0 24 24h.00005a24 24 0 0 0 24-24v-40.00544z" fill="#ffceb6"/><path d="m112 80.03212 2.34633 2.34564a19.312 19.312 0 0 0 13.65367 5.65435 24.004 24.004 0 0 0 23.99974-24.00352c.00026-4.59004.00026-7.99647.00026-7.99647h-44.58363a19.41637 19.41637 0 0 0 -19.41637 19.41637 19.41627 19.41627 0 0 0 2.04984 8.68326l5.95016 11.90037z" fill="#b36f42"/><path d="m176.00007 240.03212h-56.00007a7.99979 7.99979 0 0 1 -6.14562-2.87846l-34.87867-41.8544a7.99993 7.99993 0 0 1 1.02463-11.26742 7.99993 7.99993 0 0 1 11.2668 1.02455l32.47992 38.97574h52.253a7.99993 7.99993 0 0 1 7.99994 7.99992v.00014a7.99993 7.99993 0 0 1 -7.99993 7.99993z" fill="#de402f"/></svg>