<svg id="flat" height="512" viewBox="0 0 512 512" width="512" xmlns="http://www.w3.org/2000/svg"><path d="m152 464.032 24-112v112h64v-184h-144v184z" fill="#445496"/><path d="m360 120.03212v24l-24 24-9.75 43.89013a35.89917 35.89917 0 0 1 -64.90991 12.12989l-21.34009-32.02002v88h-144v-160h145.01a32.0248 32.0248 0 0 1 24.59009 11.51l30.39991 36.49 8-16 3.46-13.82007a24.00279 24.00279 0 0 1 23.28-18.17993z" fill="#ffceb6"/><path d="m336 168.03212-9.75 43.89013a35.89917 35.89917 0 0 1 -64.90991 12.12989l-21.34009-32.02002v88h-144v-160h145.01a32.0248 32.0248 0 0 1 24.59009 11.51l30.39991 36.49 8-16z" fill="#ed6445"/><path d="m160 152.032-16.001 88 24.001 16 24-16-16-88z" fill="#f7c04a"/><path d="m160 152.032-8-16 15.997-8 16.003 8-8 16z" fill="#f5a431"/><path d="m104 296.03212 16 24-18.43994 11.06006a23.993 23.993 0 0 1 -33.48-9.2002l-18.68992-34.69998-17.85014-33.14987a63.10651 63.10651 0 0 1 .16992-60.1399l31.18998-57.19018a32.01867 32.01867 0 0 1 28.1001-16.67993h5v56l-24 48 16 40 23.34009 5.83008a11.44174 11.44174 0 0 1 2.33984 21.32983z" fill="#ffceb6"/><rect fill="#de402f" height="16" rx="8" transform="matrix(.447 -.894 .894 .447 -5.41 359.309)" width="35.777" x="270.111" y="176.032"/><path d="m96 176.03212-24 48 16 40-38.60986 23.15988-17.85014-33.14987a63.10651 63.10651 0 0 1 .16992-60.1399l31.18998-57.19018a32.01867 32.01867 0 0 1 28.1001-16.67993h13v56z" fill="#ed6445"/><path d="m328 72.03212h32a0 0 0 0 1 0 0v48a0 0 0 0 1 0 0h-32a16 16 0 0 1 -16-16v-16a16 16 0 0 1 16-16z" fill="#5771e5"/><path d="m432 144.032-72-24v-48l72-24z" fill="#89a8f5"/><g fill="#f7dfa1"><path d="m464 88.032h32v16h-32z"/><path d="m455.426 56.033h32v15.999h-32z" transform="matrix(.866 -.5 .5 .866 31.148 244.304)"/><path d="m463.426 112.032h15.999v32h-15.999z" transform="matrix(.5 -.866 .866 .5 124.834 472.283)"/></g><path d="m207.99926 153.0631a7.99961 7.99961 0 0 1 -11.229 1.37082l-28.7002-22.45186-28.87048 21.65076a7.9996 7.9996 0 0 1 -11.1991-1.60007l-.00086-.00114a7.99961 7.99961 0 0 1 1.59956-11.19931l27.73089-20.80019h21.42993l27.86814 21.8003a7.99963 7.99963 0 0 1 1.37112 11.23069z" fill="#de402f"/><path d="m144 64.03212-.00348 40a24 24 0 0 0 24 24h.00005a24 24 0 0 0 24-24v-40.00544z" fill="#ffceb6"/><path d="m160 72.03212 2.34633 2.34564a19.312 19.312 0 0 0 13.65367 5.65435 24.004 24.004 0 0 0 23.99974-24.00352c.00026-4.59004.00026-7.99647.00026-7.99647h-44.58363a19.41637 19.41637 0 0 0 -19.41637 19.41637 19.41627 19.41627 0 0 0 2.04984 8.68326l5.95016 11.90037z" fill="#b36f42"/></svg>