<svg id="flat" height="512" viewBox="0 0 512 512" width="512" xmlns="http://www.w3.org/2000/svg"><path d="m328 400.03212v32h160v-32q0-4.04992-.39014-8a80.07179 80.07179 0 0 0 -71.60986-71.60987q-3.94482-.39038-8-.39013-4.04993 0-8 .39013a80.02642 80.02642 0 0 0 -72 79.60987z" fill="#f5a431"/><path d="m464 392.03212v16h24v-8q0-4.04992-.39014-8z" fill="#eb8117"/><path d="m441.93994 354.77211 11.31006 11.32007 16.68994-16.69a80.12435 80.12435 0 0 0 -11.31982-11.31z" fill="#eb8117"/><path d="m400 320.42225v23.60987h16v-23.60987q-3.94482-.39038-8-.39013-4.04992 0-8 .39013z" fill="#eb8117"/><path d="m184 400.03212v32h-160v-32q0-4.04992.39014-8a80.07179 80.07179 0 0 1 71.60986-71.60987q3.94482-.39038 8-.39013 4.04993 0 8 .39013a80.02642 80.02642 0 0 1 72 79.60987z" fill="#f5a431"/><path d="m168 152.03185a32 32 0 0 0 -32 32v40h48v72.00027l144-.00027v-72l48 .00026v-40.00026a32 32 0 0 0 -32-32z" fill="#ed6445"/><path d="m392 392.03212v40h-272v-40q0-4.0199.24-8a135.98858 135.98858 0 0 1 127.76-127.76001q3.97485-.23987 8-.24 4.0199 0 8 .24a135.37244 135.37244 0 0 1 82.34009 34.09989 137.4599 137.4599 0 0 1 11.31982 11.32 135.37123 135.37123 0 0 1 34.10009 82.34012q.23988 3.97488.24 8z" fill="#f7c04a"/><path d="m232 88.03782-.00348 47.994a24 24 0 0 0 24 24h.00005a24 24 0 0 0 24-24v-47.9997z" fill="#ffceb6"/><path d="m248 104.03185 2.34633 2.34564a19.312 19.312 0 0 0 13.65367 5.65435 24.004 24.004 0 0 0 23.99974-24.00352c.00026-4.59004.00026-7.99647.00026-7.99647h-44.58363a19.41637 19.41637 0 0 0 -19.41637 19.41637 19.41626 19.41626 0 0 0 2.04984 8.68325l5.95016 11.90038z" fill="#b36f42"/><path d="m344 224.03212h-16v-32a8 8 0 0 1 8-8 8 8 0 0 1 8 8z" fill="#de402f"/><path d="m184 224.03212v47.99973l24 24h18.34315a5.65685 5.65685 0 0 1 5.65685 5.65685 5.65688 5.65688 0 0 1 -1.65685 4l-14.34315 14.34315 16 24-7.02944 7.02943a24 24 0 0 1 -33.94112 0l-40.97057-40.97056a48 48 0 0 1 -14.05887-33.94112v-52.11748z" fill="#ffceb6"/><path d="m184 224.03212h-16v-32a8 8 0 0 1 8-8 8 8 0 0 1 8 8z" fill="#de402f"/><path d="m250.647 394.047 63.564-73.699-36.226 90.331z" fill="#e8671c"/><path d="m48 392.03212v16h-24v-8q0-4.04992.39014-8z" fill="#eb8117"/><path d="m70.06006 354.77211-11.31006 11.32007-16.68994-16.69a80.12435 80.12435 0 0 1 11.31982-11.31z" fill="#eb8117"/><path d="m112 320.42225v23.60987h-16v-23.60987q3.94482-.39038 8-.39013 4.04993 0 8 .39013z" fill="#eb8117"/><g fill="#f5a431"><path d="m152 384.03212v16h-32v-8q0-4.0199.24-8z"/><path d="m264 256.27211v31.76h-16v-31.76q3.97485-.23987 8-.24 4.0199.00001 8 .24z"/><path d="m357.65991 301.692-22.46 22.4602-11.32007-11.32006 22.46025-22.46014a137.4599 137.4599 0 0 1 11.31982 11.32z"/><path d="m392 392.03212v8h-32v-16h31.76q.23988 3.97488.24 8z"/></g><path d="m376 224.03185h-48v24l-40-32v-12.6863a8 8 0 0 0 -2.34314-5.65685 8 8 0 0 0 -11.3137 0l-10.34316 10.34315-24-16-14.4 19.2a16 16 0 0 0 3.2 22.4l70.4 52.8a48 48 0 0 0 28.8 9.6h.00007a48 48 0 0 0 48-48v-24z" fill="#ffceb6"/><path d="m280 416.03212a23.89085 23.89085 0 0 1 -6.12012 16h-35.75976a23.99732 23.99732 0 1 1 41.87988-16z" fill="#eb8117"/></svg>