<svg id="flat" height="512" viewBox="0 0 512 512" width="512" xmlns="http://www.w3.org/2000/svg"><path d="m400 80.032h24v32h-24z" fill="#ffbfa1"/><path d="m288 160.03212v40h-74.8999a31.99969 31.99969 0 0 1 -29.41016-19.39012l-15.68994-36.60988v72h-96l-.1499-95.82007a16.14919 16.14919 0 0 1 16.1499-16.17993h82.8999a31.99968 31.99968 0 0 1 29.41016 19.39013l15.68994 36.60987z" fill="#ffceb6"/><path d="m256.14014 160.03212a4.79926 4.79926 0 0 0 .37988 1.04l7.48 14.96-14.34011 14.33988a5.66334 5.66334 0 0 0 -1.65991 4v5.66016h40v-40z" fill="#ffbfa1"/><path d="m168 448.032-40-184-32 168-40 16 16-232h96l40 216z" fill="#445496"/><path d="m112 80.032h24v32h-24z" fill="#ffbfa1"/><path d="m96 258.372a5.66773 5.66773 0 0 1 -5.65991 5.66016h-10.34009l8 24-17.62988 4.40984a16.008 16.008 0 0 1 -19.06006-10.47l-11.31006-33.93988-12.34009-37.03a71.23434 71.23434 0 0 1 7.17017-60.3l19.77-31.62988a31.992 31.992 0 0 1 27.13989-15.04h6.26003v40l-24 40 13.95 48.82007 2.05 7.17981 14.34009 14.33988a5.66334 5.66334 0 0 1 1.65991 4z" fill="#ffceb6"/><path d="m248 160.03212v40h-34.8999a31.99969 31.99969 0 0 1 -29.41016-19.39012l-15.68994-36.60988v72h-96l-.1499-95.82007a16.14919 16.14919 0 0 1 16.1499-16.17993h82.8999a31.99968 31.99968 0 0 1 29.41016 19.39013l15.68994 36.60987z" fill="#ed6445"/><path d="m88 144.03212-24 40 13.95 48.82007-37.95 15.17993-12.34009-37.03a71.23434 71.23434 0 0 1 7.17017-60.3l19.77-31.62988a31.992 31.992 0 0 1 27.13989-15.04h14.26003v40z" fill="#ed6445"/><path d="m472 448.032v24h-72v-16l32-24z" fill="#d68b51"/><path d="m432 432.032-24-180v-52h48v48l16 200z" fill="#f0d9b4"/><path d="m448 242.03212 30.83367-38.54212a41.83032 41.83032 0 0 0 9.16633-26.13117 41.83031 41.83031 0 0 0 -12.25182-29.5785l-27.74818-27.74819z" fill="#4356e6"/><path d="m424 80.0321-16-8h-16v16a16 16 0 0 0 16 16 16 16 0 0 0 16-16z" fill="#ffceb6"/><path d="m424 80.0321v-16a16 16 0 0 0 -16-16h-12.6863a11.3137 11.3137 0 0 0 -11.3137 11.3137 11.31372 11.31372 0 0 0 3.31371 8l4.68629 4.6863h16z" fill="#b36f42"/><path d="m144 56.03212v16 16a16 16 0 0 1 -16 16 16 16 0 0 1 -16-16v-32z" fill="#ffceb6"/><path d="m112 80.03212-5.95016-11.90032a19.41644 19.41644 0 0 1 -2.04984-8.68327 19.41638 19.41638 0 0 1 19.41639-19.41639h36.58361v9.37261a22.62741 22.62741 0 0 1 -22.62741 22.6274 22.62741 22.62741 0 0 1 -16-6.62742l-1.37259-1.3726-8 16z" fill="#b36f42"/><path d="m136 136.032 8 40-16 16-16-16 8-40z" fill="#f7c04a"/><path d="m120 136.032-8-16 16-8 16 8-8 16z" fill="#f5a431"/><path d="m96 432.032 32 24v16h-72v-24z" fill="#8796c4"/><path d="m208 432.032 32 24v16h-72v-24z" fill="#8796c4"/><path d="m328 432.03212 48-208v-16h80v12.22295a57.88847 57.88847 0 0 1 -32 51.777l-56 176z" fill="#f0d9b4"/><path d="m328 432.032-32 24v16h72v-24z" fill="#d68b51"/><path d="m312 200.03212h18.74517a32 32 0 0 0 22.62741-9.37259l22.62742-22.62741v40h80v-72a32 32 0 0 0 -32-32h-34.74517a32 32 0 0 0 -22.62741 9.37258l-46.62742 46.62742h-8z" fill="#5771e5"/><path d="m312 160.03212v40h-42.34315a5.65685 5.65685 0 0 1 -5.65685-5.65685 5.65688 5.65688 0 0 1 1.65685-4l14.34315-14.34315-7.47978-14.95955a4.92772 4.92772 0 0 1 -.52022-2.20371 4.92764 4.92764 0 0 1 6.4859-4.67477l17.5141 5.83803z" fill="#ffceb6"/><path d="m72.23005 149.49014h15.3895a8.00047 8.00047 0 0 1 8.00045 8.00047 8.00047 8.00047 0 0 1 -8.00047 8.00047h-15.38948a8.00046 8.00046 0 0 1 -8.00046-8.00046 8.00047 8.00047 0 0 1 8.00047-8.00047z" fill="#de402f" transform="matrix(.514 -.857 .857 .514 -96.243 144.997)"/><path d="m160 128.03212a8.00019 8.00019 0 0 1 -11.2 1.60009l-20.8-15.60009-20.8 15.60009a8 8 0 1 1 -9.59985-12.8l17.06982-12.8h26.66016l17.06982 12.8a8.0042 8.0042 0 0 1 1.60005 11.19991z" fill="#de402f"/><path d="m414.60417 301.56229a7.99972 7.99972 0 0 1 -5.19739-10.04849l6.97019-21.90745a7.99782 7.99782 0 0 1 4.04493-4.7295 49.61757 49.61757 0 0 0 27.5781-44.62208v-4.22266a8 8 0 0 1 8-8 8 8 0 0 1 8 8v4.22266a65.49755 65.49755 0 0 1 -33.36328 57.30371l-5.98361 18.80622a7.99971 7.99971 0 0 1 -10.04894 5.19759z" fill="#ebc99b"/></svg>