<svg id="flat" height="512" viewBox="0 0 512 512" width="512" xmlns="http://www.w3.org/2000/svg"><path d="m424 160.03212h64v-48a24 24 0 0 0 -24-24h-40z" fill="#3d44d1"/><path d="m160 384.03212v-224a24 24 0 0 1 24-24h280a24 24 0 0 0 24-24v248a24 24 0 0 1 -24 24z" fill="#5771e5"/><path d="m160 160.03212v232a24 24 0 0 0 24 24h32v-232h-32a24 24 0 0 1 -24-24z" fill="#89a8f5"/><path d="m88 264.032h24v32h-24z" fill="#ffbfa1"/><path d="m160 288.03212v104h-16v32h-104v-69.33012l-7.56006-8.83a35.03351 35.03351 0 0 1 26.60006-57.83988z" fill="#ed6445"/><path d="m120 240.03212v16 16a16 16 0 0 1 -16 16 16 16 0 0 1 -16-16v-32z" fill="#ffceb6"/><path d="m88 264.03212-5.95016-11.90032a19.41644 19.41644 0 0 1 -2.04984-8.68327 19.41638 19.41638 0 0 1 19.41639-19.41639h36.58361v9.37261a22.62741 22.62741 0 0 1 -22.62741 22.6274 22.62741 22.62741 0 0 1 -16-6.62742l-1.37259-1.3726-8 16z" fill="#b36f42"/><path d="m152 392.03213a8 8 0 0 1 -8 8h-57.28223a39.95275 39.95275 0 0 1 -30.37011-13.96875l-17.21524-20.084a7.99994 7.99994 0 0 1 .86789-11.28058 7.99994 7.99994 0 0 1 11.28.86785l17.21608 20.08495a23.99921 23.99921 0 0 0 18.22138 8.38052h57.28223a8 8 0 0 1 8 8z" fill="#de402f"/><path d="m152 360.03212 14.63344-7.31672a6.47207 6.47207 0 0 1 2.89442-.68328 6.47213 6.47213 0 0 1 6.47214 6.47213v9.52787l14.34315 14.34314a5.65688 5.65688 0 0 1 1.65685 4 5.65685 5.65685 0 0 1 -5.65685 5.65685h-34.34315z" fill="#ffceb6"/><path d="m112 320.032 8-16-16-16-16 16 8 16z" fill="#f5a431"/><path d="m96 320.032-8 40h32l-8-40z" fill="#f7c04a"/><g fill="#3d44d1"><path d="m288 264.03212h-16v-24a24.0275 24.0275 0 0 1 24-24h48v16h-48a8.00916 8.00916 0 0 0 -8 8z"/><path d="m424 296.032h16v48h-16z"/><path d="m288 272.032h128v16h-128z"/><path d="m368 328.032h48v16h-48z"/><path d="m280 168.032h16v16h-16z"/><path d="m312 168.032h72v16h-72z"/><path d="m400 168.032h16v16h-16z"/></g><path d="m135.99979 312.0324a7.9997 7.9997 0 0 1 -11.1995 1.59987l-20.80029-15.60015-20.80028 15.60016a7.9997 7.9997 0 0 1 -11.1995-1.59987 7.99969 7.99969 0 0 1 1.6003-11.2l17.06941-12.80033h26.66016l17.06941 12.80033a7.99969 7.99969 0 0 1 1.60029 11.19999z" fill="#de402f"/><path d="m152 360.03213a8 8 0 0 1 -8 8h-56a8.00056 8.00056 0 0 1 -6.24707-3.002l-27.00267-33.7533a8 8 0 0 1 1.24914-11.24424l.0006-.00051a8 8 0 0 1 11.24473 1.24928l24.6 30.75076h52.15527a8 8 0 0 1 8 8z" fill="#de402f"/><path d="m448 328.03212h-9.42517a27.85127 27.85127 0 0 1 -12.45553-2.94036 15.69691 15.69691 0 0 0 -18.1193 2.94035v24h40z" fill="#a2c1fa"/><path d="m320 280.032 32-16 32 16-32 16z" fill="#ed6445"/><path d="m264 264.032h40l-16 32h-40z" fill="#51a37e"/><path d="m416 264.032h40l-16 32h-40z" fill="#51a37e"/><rect fill="#f7c04a" height="32" rx="16" width="48" x="328" y="208.032"/><rect fill="#f7c04a" height="32" rx="16" width="48" x="328" y="320.032"/></svg>