<svg id="flat" height="512" viewBox="0 0 512 512" width="512" xmlns="http://www.w3.org/2000/svg"><path d="m376 496.032-32-88h32l32 88z" fill="#3d44d1"/><path d="m224 56.032h248v208h-248z" fill="#e4e9f2"/><path d="m208 24.032h280v32h-280z" fill="#5771e5"/><path d="m208 280.032v16h280v-32h-240" fill="#5771e5"/><path d="m224 167.142v67.56l-48-58.66992v136h-136v-92l-4.32-5.39991a53.30013 53.30013 0 0 1 41.62-86.60005h95.74a40.006 40.006 0 0 1 30.96 14.66988z" fill="#ed6445"/><path d="m128 160.032 8-16-16.003-8-15.997 8 8 16z" fill="#f5a431"/><path d="m160.00135 161.06041a7.99721 7.99721 0 0 1 -11.22189 1.4188l-28.85946-22.38703-28.72 21.53982a8.00011 8.00011 0 0 1 -11.20011-1.6 8.00011 8.00011 0 0 1 1.59969-11.2l27.73042-20.79988h21.14l28.11314 21.80945a7.99722 7.99722 0 0 1 1.41821 11.21884z" fill="#de402f"/><path d="m112 160.032-6.117 55.06 14.117 16.94h15.999l-7.999-72z" fill="#f7c04a"/><path d="m88 496.032 32-136v136h56v-184h-136v184z" fill="#445496"/><path d="m336 296.032h24v88h-24z" fill="#4356e6"/><path d="m320 384.032h56v24h-56z" fill="#6e8beb"/><path d="m352 408.032-32 88h-32l32-88z" fill="#5771e5"/><path d="m408 160.03212a64 64 0 1 1 -64-64 63.983 63.983 0 0 1 64 64z" fill="#51a37e"/><path d="m408 160.03212h-64v-64a63.99511 63.99511 0 0 1 64 64z" fill="#f7c04a"/><path d="m408 160.03212a63.983 63.983 0 0 1 -32.24 55.58008l-31.76-55.58008z" fill="#ed6445"/><g fill="#6d7eb3"><path d="m305.14014 148.14833-21.66944-36.11621h-35.4707v-16h40a8.00072 8.00072 0 0 1 6.85986 3.88379l24 40z"/><path d="m373.65674 133.68934-11.31348-11.31445 32-32a8.00035 8.00035 0 0 1 5.65674-2.34277h32v16h-28.686z"/><path d="m448 216.03212h-32a8.00229 8.00229 0 0 1 -4.7998-1.59961l-32-24 9.5996-12.80078 29.8667 22.40039h29.3335z"/></g><path d="m95.99652 72.03212v40a24 24 0 0 0 24 24h.00005a24 24 0 0 0 24-24v-40.00544z" fill="#ffceb6"/><path d="m112 80.03212 2.34633 2.34564a19.312 19.312 0 0 0 13.65367 5.65435 24.004 24.004 0 0 0 23.99974-24.00352c.00026-4.59004.00026-7.99647.00026-7.99647h-44.58363a19.41637 19.41637 0 0 0 -19.41637 19.41637 19.41627 19.41627 0 0 0 2.04984 8.68326l5.95016 11.90037z" fill="#b36f42"/><path d="m184 280.03212h54.11147a9.88854 9.88854 0 0 0 9.88853-9.88854 9.88854 9.88854 0 0 0 -5.46625-8.84458l-26.53375-13.26688 6.25905-6.25905a9.929 9.929 0 0 0 -2.58049-15.90167 9.929 9.929 0 0 0 -7.58022-.53871l-20.09834 6.69943h-8z" fill="#ffceb6"/><path d="m40 220.03214 38.39218 47.99022a32 32 0 0 0 24.98782 12.00976h80.62v-48h-64l-40-48z" fill="#ed6445"/><path d="m176.00018 240.03212h-55.99959a8.0011 8.0011 0 0 1 -6.14659-2.87891l-34.87836-41.854a7.99983 7.99983 0 0 1 1.02461-11.26727l.00018-.00015a7.99983 7.99983 0 0 1 11.26665 1.02453l32.48 38.97583h52.25311a7.99982 7.99982 0 0 1 7.99981 7.99979v.00036a7.99982 7.99982 0 0 1 -7.99982 7.99982z" fill="#de402f"/><path d="m184 280.0323a7.99982 7.99982 0 0 1 -7.99982 7.99982h-72.6203a39.80578 39.80578 0 0 1 -31.23488-15.01172l-33.39446-41.74406a7.99981 7.99981 0 0 1 1.24977-11.24447 7.99983 7.99983 0 0 1 11.24391 1.24965l33.39493 41.74377a23.88411 23.88411 0 0 0 18.74072 9.00684h72.6203a7.99982 7.99982 0 0 1 7.99983 7.99981z" fill="#de402f"/></svg>