<svg id="flat" height="512" viewBox="0 0 512 512" width="512" xmlns="http://www.w3.org/2000/svg"><path d="m432 24.032h32v32h-32z" fill="#f5a431"/><path d="m48 24.032h32v32h-32z" fill="#f5a431"/><path d="m352 112.032 48 56-144 200-144-200 48-56z" fill="#5771e5"/><path d="m256 112.032 48 56 48-56z" fill="#89a8f5"/><path d="m160 112.032 48 56 48-56z" fill="#89a8f5"/><path d="m208 168.032 48-56 48 56z" fill="#a2c1fa"/><path d="m112 168.032 48-56 48 56z" fill="#6e8beb"/><path d="m304 168.032 48-56 48 56z" fill="#6e8beb"/><path d="m256 368.032 48-200h-96z" fill="#6e8beb"/><path d="m80 408.032h112v88h-112z" fill="#ed6445"/><path d="m52.97056 245.00267a16.97057 16.97057 0 0 0 -12-4.97055 16.97054 16.97054 0 0 0 -16.97056 16.97054 26.00127 26.00127 0 0 0 3.54193 13.1013l52.45807 89.92816v48h112v-47.66725a72 72 0 0 0 -24.1658-53.81347l-43.01177-38.23268a16.97057 16.97057 0 0 0 -11.27462-4.2866h-.57726a16.97054 16.97054 0 0 0 -16.97055 16.97054 16.9705 16.9705 0 0 0 4.97056 12z" fill="#ffceb6"/><path d="m114.48534 287.40487a8.00018 8.00018 0 0 1 8.00018 8.00018v22.22485a8.00017 8.00017 0 0 1 -8.00017 8.00017 8.00017 8.00017 0 0 1 -8.00017-8.00017v-22.2249a8.00017 8.00017 0 0 1 8.00016-8.00013z" fill="#ffbfa1" transform="matrix(.707 -.707 .707 .707 -183.209 170.73)"/><g fill="#f7c04a"><path d="m56 168.03212h-16v-144a8.00008 8.00008 0 0 1 8-8h160v16h-152z"/><path d="m224 16.032h16v16h-16z"/><path d="m40 184.032h16v16h-16z"/><path d="m472 168.03212h-16v-136h-152v-16h160a8.00008 8.00008 0 0 1 8 8z"/><path d="m272 16.032h16v16h-16z"/><path d="m456 184.032h16v16h-16z"/></g><path d="m320 408.032h112v88h-112z" fill="#ed6445"/><path d="m459.02944 245.00267a16.97057 16.97057 0 0 1 12-4.97055 16.97054 16.97054 0 0 1 16.97056 16.97054 26.00127 26.00127 0 0 1 -3.54193 13.1013l-52.45807 89.92816v48h-112v-47.66725a72 72 0 0 1 24.1658-53.81347l43.01177-38.23268a16.97057 16.97057 0 0 1 11.27462-4.2866h.57726a16.97054 16.97054 0 0 1 16.97055 16.97054 16.9705 16.9705 0 0 1 -4.97056 12z" fill="#ffceb6"/><rect fill="#ffbfa1" height="16" rx="8" transform="matrix(.707 -.707 .707 .707 -100.311 370.862)" width="38.225" x="378.402" y="298.517"/></svg>