<svg id="flat" height="512" viewBox="0 0 512 512" width="512" xmlns="http://www.w3.org/2000/svg"><path d="m264 400.03212v40h-24l-56-56.01v104.01h-16v7.99947l-128-.00945v-59.41995l-3.46-4.44019a59.576 59.576 0 0 1 47.02-96.13989h103.18a32.0108 32.0108 0 0 1 22.63 9.38012z" fill="#ed6445"/><g fill="#f7d179"><path d="m160 184.032h40v16h-40z"/><path d="m209.088 140.032h101.823v16h-101.823z" transform="matrix(.707 -.707 .707 .707 -28.526 227.193)"/><path d="m297.088 52.032h101.823v16h-101.823z" transform="matrix(.707 -.707 .707 .707 59.469 263.644)"/><path d="m128 184.032h16v16h-16z"/></g><path d="m176 472.032h56v16h-56z" fill="#445496"/><path d="m136 368.062 7.997 79.965h-32l8-80z" fill="#f7c04a"/><path d="m119.997 368.027-8-16 16-7.995 16 7.995-8 16z" fill="#f5a431"/><path d="m176 488.02639a7.99987 7.99987 0 0 1 -7.99987 7.99987h-72.35313a39.74186 39.74186 0 0 1 -31.57373-15.44141l-25.47664-32.75628a7.99989 7.99989 0 0 1 1.40362-11.22634 7.99988 7.99988 0 0 1 11.22588 1.40354l25.4765 32.75585a23.84628 23.84628 0 0 0 18.94437 9.26464h72.35316a7.99986 7.99986 0 0 1 7.99984 7.99986z" fill="#de402f"/><path d="m176 448.02666h7.99652l15.12688-10.08117a16 16 0 0 1 17.74623 0l23.13037 15.41501v18.66616h-32.00348l-8.97057 8.97056a24 24 0 0 1 -16.97056 7.02944h-6.05539z" fill="#ffceb6"/><path d="m168.00013 456.02626h-56.00355a7.99981 7.99981 0 0 1 -6.07393-2.79362l-42.79384-49.92614a7.99986 7.99986 0 0 1 .868-11.2804l.00014-.00012a7.99987 7.99987 0 0 1 11.27994.8679l40.39943 47.13238h52.32386a7.99986 7.99986 0 0 1 7.99982 7.99986v.00027a7.99987 7.99987 0 0 1 -7.99987 7.99987z" fill="#de402f"/><path d="m288 296.032h16v32h-16z" fill="#cad8ed"/><path d="m288 344.032h16v24h-16z" fill="#cad8ed"/><path d="m232 240.032h48v56h-48z" fill="#3d44d1"/><path d="m280 208.032h48v88h-48z" fill="#4356e6"/><path d="m328 160.032h48v136h-48z" fill="#5771e5"/><path d="m376 112.032h48v184h-48z" fill="#6e8beb"/><path d="m424 64.032h48v232h-48z" fill="#89a8f5"/><circle cx="216" cy="192.032" fill="#f7c04a" r="16"/><path d="m216 216.03223a24 24 0 1 1 24-24 24.02719 24.02719 0 0 1 -24 24zm0-32a8 8 0 1 0 8 8 8.00916 8.00916 0 0 0 -8-8z" fill="#fcedc0"/><circle cx="304" cy="104.032" fill="#f7c04a" r="16"/><path d="m304 128.03223a24 24 0 1 1 24-24 24.02719 24.02719 0 0 1 -24 24zm0-32a8 8 0 1 0 8 8 8.00916 8.00916 0 0 0 -8-8z" fill="#fcedc0"/><path d="m336 488.027 48-95.995h-120.003l-48 95.995z" fill="#56679c"/><path d="m300 456.03212a12 12 0 1 1 12-12 12.01344 12.01344 0 0 1 -12 12z" fill="#445496"/><path d="m168 376.02211a7.99153 7.99153 0 0 1 -11.32007 0l-28.67993-28.68994-28.68994 28.68994a7.99742 7.99742 0 0 1 -11.31006-11.31011l28.67993-28.68994h22.64014l28.67993 28.68994a8.0032 8.0032 0 0 1 0 11.31011z" fill="#de402f"/><path d="m103.99652 288.03212v32a24 24 0 0 0 24 24h.00005a24 24 0 0 0 24-24v-32.00544z" fill="#ffceb6"/><path d="m120 288.03212 2.34315 2.34315a19.31368 19.31368 0 0 0 13.65685 5.65684 24 24 0 0 0 24-24v-8h-39.93451a22.28967 22.28967 0 0 0 -21.14585 15.24106 22.28968 22.28968 0 0 0 1.20935 17.01686l3.87101 7.74209z" fill="#b36f42"/><path d="m208 288.032h288v16h-288z" fill="#e4e9f2"/></svg>