<svg id="flat" height="512" viewBox="0 0 512 512" width="512" xmlns="http://www.w3.org/2000/svg"><path d="m96 96.03212v-72h-48a24 24 0 0 0 -24 24v48z" fill="#a6bce3"/><path d="m384 488.03212h-288a24 24 0 0 1 -24-24v-416.00003a24 24 0 0 0 -24-24h320c13.25483 0 16 10.74516 16 24z" fill="#cad8ed"/><path d="m96 488.03212h288a24 24 0 0 0 24-24v-32h-288v32a24 24 0 0 1 -24 24z" fill="#e4e9f2"/><path d="m488 368.03212v16h-152a32.00409 32.00409 0 0 1 -32-32v-120h80a24.00619 24.00619 0 0 1 24 24v88h56a24.00619 24.00619 0 0 1 24 24z" fill="#5771e5"/><path d="m424 368.03212v16h-88a32.00409 32.00409 0 0 1 -32-32v-120h16a24.00619 24.00619 0 0 1 24 24v88h56a24.00619 24.00619 0 0 1 24 24z" fill="#6e8beb"/><path d="m384 384.032h32v48h-32z" fill="#445496"/><path d="m456 464.032-32-32h-48l-32 32v16h112z" fill="#56679c"/><circle cx="344" cy="472.032" fill="#8796c4" r="16"/><circle cx="400" cy="472.032" fill="#8796c4" r="16"/><circle cx="456" cy="472.032" fill="#8796c4" r="16"/><g fill="#a6bce3"><path d="m336 88.03212h-224a8.00039 8.00039 0 0 0 -8 8v296a8.00039 8.00039 0 0 0 8 8h184v-16h-16v-240h48v64h16v-112a8.00039 8.00039 0 0 0 -8-8zm-72 16v24h-40v-24zm-56 0v24h-88v-24zm-88 40h88v240h-88zm144 240h-40v-240h40zm16-256v-24h48v24z"/><path d="m136 160.032h24v16h-24z"/><path d="m136 192.032h40v16h-40z"/><path d="m176 56.032h48v16h-48z"/><path d="m240 56.032h40v16h-40z"/><path d="m176 160.032h16v16h-16z"/></g><path d="m384 368.03212h-16v-32a16.01833 16.01833 0 0 0 -16-16h-32v-16h32a32.03667 32.03667 0 0 1 32 32z" fill="#56679c"/><path d="m448 344.03212h-16v-8a16.01833 16.01833 0 0 0 -16-16h-8v-16h8a32.03667 32.03667 0 0 1 32 32z" fill="#56679c"/></svg>