<svg id="flat" height="512" viewBox="0 0 512 512" width="512" xmlns="http://www.w3.org/2000/svg"><path d="m24 72.03211v-32a16 16 0 0 1 16-16h432a16 16 0 0 1 16 16v32z" fill="#89a8f5"/><path d="m488 72.03211v400a16 16 0 0 1 -16 16h-432a16 16 0 0 1 -16-16v-400z" fill="#5771e5"/><g fill="#3d44d1"><path d="m56 280.032h56v16h-56z"/><path d="m128 280.032h24v16h-24z"/><path d="m56 312.032h32v16h-32z"/><path d="m104 312.032h120v16h-120z"/><path d="m56 344.032h80v16h-80z"/><path d="m152 344.032h32v16h-32z"/><path d="m112 456.03212h-48a8.00008 8.00008 0 0 1 -8-8v-48a8.00008 8.00008 0 0 1 8-8h16v16h-8v32h32v-40h16v48a8.00008 8.00008 0 0 1 -8 8z"/></g><path d="m70.059 400.032h67.882v16h-67.882z" fill="#ed6445" transform="matrix(.707 -.707 .707 .707 -258.052 193.033)"/><path d="m152 432.032h96v16h-96z" fill="#3d44d1"/><path d="m264 432.032h56v16h-56z" fill="#3d44d1"/><path d="m152 400.032h48v16h-48z" fill="#3d44d1"/><path d="m216 400.032h56v16h-56z" fill="#3d44d1"/><circle cx="48" cy="48.032" fill="#ed6445" r="8"/><circle cx="72" cy="48.032" fill="#f7c04a" r="8"/><circle cx="96" cy="48.032" fill="#90d4b1" r="8"/><path d="m336 192.03212a80.04321 80.04321 0 0 1 -64.5 78.5 80.83333 80.83333 0 0 1 -31 0 80.00718 80.00718 0 1 1 95.5-78.5z" fill="#6e8beb"/><path d="m312 224.03212v25.13a79.76928 79.76928 0 0 1 -40.5 21.37 80.83333 80.83333 0 0 1 -31 0 79.77129 79.77129 0 0 1 -40.5-21.37v-25.13a15.99555 15.99555 0 0 1 16-16h80a16.002 16.002 0 0 1 16 16z" fill="#ed6445"/><path d="m264 248.03212 7.5 22.5a80.83333 80.83333 0 0 1 -31 0l7.5-22.5z" fill="#f7c04a"/><path d="m248 248.032-8-16 16-16 16 16-8 16z" fill="#f5a431"/><path d="m276.79661 241.62994-20.80027-15.6-20.80027 15.6a7.99983 7.99983 0 0 1 -11.19977-1.60007 7.99982 7.99982 0 0 1 1.6-11.19967l25.60023-19.2002a7.998 7.998 0 0 1 9.59961 0l25.60022 19.20016a7.99982 7.99982 0 0 1 1.6 11.19967 7.99983 7.99983 0 0 1 -11.19975 1.60011z" fill="#de402f"/><path d="m271.9959 168.06215v15.96788 16a16 16 0 0 1 -16 16 16 16 0 0 1 -16-16v-31.96789z" fill="#ffceb6"/><path d="m239.99591 192.03-5.95016-11.90032a19.41644 19.41644 0 0 1 -2.04984-8.68327 19.41639 19.41639 0 0 1 19.41639-19.41641h36.58361v9.37262a22.62741 22.62741 0 0 1 -22.62741 22.62738 22.62737 22.62737 0 0 1 -16-6.62742l-1.3726-1.37258-8 16z" fill="#b36f42"/><path d="m432 368.03212a64 64 0 1 1 -64-64 63.983 63.983 0 0 1 64 64z" fill="#51a37e"/><path d="m432 368.03212h-64v-64a63.99511 63.99511 0 0 1 64 64z" fill="#f7c04a"/><path d="m432 368.03212a63.983 63.983 0 0 1 -32.24 55.58008l-31.76-55.58008z" fill="#ed6445"/><path d="m337.75293 357.03016-29.59814-36.998h-36.15479v-16h40a8.00055 8.00055 0 0 1 6.24707 3.00195l32 40z" fill="#a6bce3"/><path d="m398.24707 349.02919-12.49414-9.99414 32-40a7.99846 7.99846 0 0 1 6.24707-3.00293h32v16h-28.15479z" fill="#a6bce3"/><path d="m456 424.03212h-16a8.00038 8.00038 0 0 1 -4.99756-1.75293l-40-32 9.99512-12.49414 37.80859 30.24707h13.19385z" fill="#a6bce3"/></svg>