<svg id="flat" height="512" viewBox="0 0 512 512" width="512" xmlns="http://www.w3.org/2000/svg"><path d="m192 24.032h128v56h-128z" fill="#f7c04a"/><path d="m216 128.032h80v48h-80z" fill="#5771e5"/><path d="m216 224.032h80v48h-80z" fill="#51a37e"/><path d="m80 128.032h80v48h-80z" fill="#5771e5"/><path d="m248 80.032h16v48h-16z" fill="#cad8ed"/><path d="m248 176.032h16v48h-16z" fill="#cad8ed"/><path d="m80 224.032h80v48h-80z" fill="#51a37e"/><path d="m112 176.032h16v48h-16z" fill="#cad8ed"/><path d="m160 144.032h56v16h-56z" fill="#cad8ed"/><path d="m352 128.032h80v48h-80z" fill="#5771e5" transform="matrix(-1 0 0 -1 784 304.064)"/><path d="m352 224.032h80v48h-80z" fill="#51a37e" transform="matrix(-1 0 0 -1 784 496.064)"/><path d="m384 176.032h16v48h-16z" fill="#cad8ed"/><path d="m296 144.032h56v16h-56z" fill="#cad8ed"/><path d="m464.00016 334.179a6.64643 6.64643 0 0 1 -.96 3.45007l-23.04 38.40991-27.02 43.23a44.18286 44.18286 0 0 1 -65.08985 11.08008l-27.89015-22.31006-.00016 88h-127.99969l-.00015-88-27.89991 22.31006a44.20317 44.20317 0 0 1 -65.09008-11.08006l-27.01-43.23-23.05-38.40991a6.73462 6.73462 0 0 1 -.95-3.45007 6.13689 6.13689 0 0 1 9.54-5.11l22.46 14.97 14.34008-14.35a5.65992 5.65992 0 0 1 9.65992 4v26.35l32 40 39.10009-32.59a32.00083 32.00083 0 0 1 20.48-7.41h120.82981a32.00771 32.00771 0 0 1 20.49023 7.41l39.09986 32.59 32-40v-26.35a5.65694 5.65694 0 0 1 9.65014-4l14.34986 14.35 22.45-14.97a6.14506 6.14506 0 0 1 9.55 5.11z" fill="#ffceb6"/><path d="m440.00016 376.039-27.02 43.23a44.18286 44.18286 0 0 1 -65.08985 11.08008l-27.89015-22.31008-.00016 88h-127.99969l-.00015-88-27.89991 22.31006a44.20317 44.20317 0 0 1 -65.09008-11.08006l-27.01-43.23 32-16 32 40 39.10009-32.59a32.00083 32.00083 0 0 1 20.48-7.41h120.82981a32.00771 32.00771 0 0 1 20.49023 7.41l39.09986 32.59 32-40z" fill="#ed6445"/><path d="m264.05 391.929-.054.108 8 64-16 16-16-16 8-64z" fill="#f7c04a"/><path d="m247.996 392.037-8-16 16-8 16 8-7.946 15.892z" fill="#f5a431"/><path d="m276.79677 393.63682-20.80028-15.6-20.80027 15.6a7.99982 7.99982 0 0 1 -11.19977-1.60007 7.99982 7.99982 0 0 1 1.6-11.19967l25.60022-19.20017a7.998 7.998 0 0 1 9.59961 0l25.60022 19.20017a7.99982 7.99982 0 0 1 1.6 11.19967 7.99981 7.99981 0 0 1 -11.19973 1.60007z" fill="#de402f"/><path d="m271.99607 320.069v31.9679a16 16 0 0 1 -16 16 16 16 0 0 1 -16-16v-31.9679z" fill="#ffceb6"/><path d="m239.99607 344.03691-5.95016-11.90031a19.41644 19.41644 0 0 1 -2.04984-8.68327 19.41639 19.41639 0 0 1 19.41639-19.41639h36.58361v9.37262a22.62739 22.62739 0 0 1 -22.6274 22.62739 22.6274 22.6274 0 0 1 -16-6.62741l-1.37259-1.37259-8 16z" fill="#b36f42"/></svg>