<svg id="flat" height="512" viewBox="0 0 512 512" width="512" xmlns="http://www.w3.org/2000/svg"><path d="m280 432.03212h-24l-28-28 169.25483-169.25484a64 64 0 0 1 45.25484-18.74516h13.49033v13.49033a64 64 0 0 1 -18.74517 45.25483z" fill="#4356e6"/><path d="m277.25483 114.77728a64 64 0 0 0 18.74517-45.25483v-13.49033h-13.49033a64 64 0 0 0 -45.25484 18.74516l-157.25483 157.25484v24l28 28z" fill="#4356e6"/><path d="m488 48.03212v29.73a159.90921 159.90921 0 0 1 -46.86 113.12988l-209.14 209.14012-120-120 209.14-209.14012a159.91147 159.91147 0 0 1 113.13-46.85988h29.73a24.00619 24.00619 0 0 1 24 24z" fill="#5771e5"/><path d="m136 256.032-96-96 20-20 172 20z" fill="#89a8f5"/><path d="m160 384.03207v8.00005a95.99988 95.99988 0 0 1 -38.4 76.79988h-.00007a95.9999 95.9999 0 0 1 -57.59993 19.20007h-40v-40a96 96 0 0 1 19.2-57.59995l.00005-.00006a95.99988 95.99988 0 0 1 76.79995-38.39994h8z" fill="#f7c04a"/><path d="m256 376.032 96 96 20-20-20-172z" fill="#89a8f5"/><path d="m360 216.032 8-8v-48l-16-16h-48l-8 8z" fill="#96cffa"/><path d="m232 400.032-8 8h-40l-80-80v-40l8-8z" fill="#4356e6"/><g fill="#89a8f5"><path d="m488 48.03212v29.73a160.0655 160.0655 0 0 1 -26.33008 87.93988l-115.33984-115.3398a160.0655 160.0655 0 0 1 87.93992-26.33008h29.73a24.00619 24.00619 0 0 1 24 24z"/><path d="m76.804 339.062h158.392v33.941h-158.392z" transform="matrix(.707 -.707 .707 .707 -206.061 214.588)"/></g></svg>