<svg id="flat" height="512" viewBox="0 0 512 512" width="512" xmlns="http://www.w3.org/2000/svg"><path d="m408 112.032h64v352h-64z" fill="#6e8beb"/><path d="m344 168.032h64v296h-64z" fill="#5771e5"/><path d="m280 232.032h64v232h-64z" fill="#4356e6"/><path d="m216 288.032h64v176h-64z" fill="#3d44d1"/><path d="m216 456.032h280v16h-280z" fill="#cad8ed"/><path d="m216 349.3622-.06006 67.48974-39.93994-48.81982v112h-136v-68l-4.32007-5.39991a53.30263 53.30263 0 0 1 41.62012-86.60009h95.74a40.006 40.006 0 0 1 30.95995 14.66988z" fill="#ed6445"/><path d="m40 412.03214 38.39218 47.99022a32 32 0 0 0 24.98782 12.00976h80.62v-48h-64l-40-48z" fill="#ed6445"/><path d="m184 472.03212h54.11147a9.88854 9.88854 0 0 0 9.88853-9.88854 9.88854 9.88854 0 0 0 -5.46625-8.84458l-26.53375-13.26688 6.25905-6.25905a9.929 9.929 0 0 0 -2.58049-15.90167 9.929 9.929 0 0 0 -7.58022-.53871l-20.09834 6.69943h-8z" fill="#ffceb6"/><path d="m128 352.032 8-16-16.003-8-15.997 8 8 16z" fill="#f5a431"/><path d="m112 352.032-6.117 55.06 14.117 16.94h15.999l-7.999-72z" fill="#f7c04a"/><g fill="#f7d179"><path d="m307.574 90.032h84.853v16.001h-84.853z" transform="matrix(.707 -.707 .707 .707 33.193 276.2)"/><path d="m408 48.032h56v16h-56z"/><path d="m480 48.032h16v16h-16z"/><path d="m152 208.032h64v16h-64z"/><path d="m226.745 168.032h90.51v16.001h-90.51z" transform="matrix(.707 -.707 .707 .707 -44.807 243.892)"/><path d="m120 208.032h16v16h-16z"/></g><path d="m184 424.03254a7.99958 7.99958 0 0 1 -7.99958 7.99958h-56.00042a7.99862 7.99862 0 0 1 -6.14551-2.87891l-34.87871-41.85446a7.99957 7.99957 0 0 1 1.02434-11.26675 7.99957 7.99957 0 0 1 11.26651 1.02427l32.48043 38.97584h52.25335a7.99957 7.99957 0 0 1 7.99959 7.99959z" fill="#de402f"/><path d="m184 472.03254a7.99958 7.99958 0 0 1 -7.99958 7.99958h-72.62054a39.80132 39.80132 0 0 1 -31.23437-15.0127l-33.39531-41.74285a7.99959 7.99959 0 0 1 1.249-11.24383l.00121-.001a7.99958 7.99958 0 0 1 11.24414 1.24911l33.3951 41.74345a23.87965 23.87965 0 0 0 18.74023 9.00782h72.62054a7.99957 7.99957 0 0 1 7.99958 7.99958z" fill="#de402f"/><path d="m159.99925 353.06311a7.99964 7.99964 0 0 1 -11.229 1.37085l-28.70019-22.45166-28.87047 21.65057a7.99962 7.99962 0 0 1 -11.19909-1.60009l-.00086-.00114a7.99964 7.99964 0 0 1 1.59957-11.19934l27.73087-20.80018h21.42992l27.86812 21.80029a7.99964 7.99964 0 0 1 1.37113 11.2307z" fill="#de402f"/><path d="m95.99652 256.03755v47.99454a24 24 0 0 0 24 24h.00005a24 24 0 0 0 24-24v-48z" fill="#ffceb6"/><path d="m112 272.03212 2.34633 2.34564a19.312 19.312 0 0 0 13.65367 5.65435 24.004 24.004 0 0 0 23.99974-24.00352c.00024-4.59.00024-7.99647.00024-7.99647h-44.58361a19.41637 19.41637 0 0 0 -19.41637 19.41637 19.41627 19.41627 0 0 0 2.04984 8.68326l5.95016 11.90037z" fill="#b36f42"/><circle cx="312" cy="136.032" fill="#f7c04a" r="16"/><path d="m312 160.03223a24 24 0 1 1 24-24 24.0275 24.0275 0 0 1 -24 24zm0-32a8 8 0 1 0 8 8 8.00916 8.00916 0 0 0 -8-8z" fill="#fcedc0"/><circle cx="392" cy="56.032" fill="#f7c04a" r="16"/><path d="m392 80.03223a24 24 0 1 1 24-24 24.0275 24.0275 0 0 1 -24 24zm0-32a8 8 0 1 0 8 8 8.00916 8.00916 0 0 0 -8-8z" fill="#fcedc0"/><circle cx="232" cy="216.032" fill="#f7c04a" r="16"/><path d="m232 240.03223a24 24 0 1 1 24-24 24.0275 24.0275 0 0 1 -24 24zm0-32a8 8 0 1 0 8 8 8.00916 8.00916 0 0 0 -8-8z" fill="#fcedc0"/></svg>