<svg id="flat" height="512" viewBox="0 0 512 512" width="512" xmlns="http://www.w3.org/2000/svg"><path d="m456 408.03212v24l15.02945 15.02945a57.94107 57.94107 0 0 1 16.97055 40.97052h-280a57.94107 57.94107 0 0 1 16.97055-40.97052l15.02945-15.02945v-24a16 16 0 0 1 16-16h184a16 16 0 0 1 16 16z" fill="#f7c04a"/><path d="m296 152.032h104v208h-104z" fill="#f7c04a"/><path d="m376 120.032 16 32h-88l16-32z" fill="#f5a431"/><path d="m400 120.032 24-96h-24l-16 24h-8l-16-24h-24l-16 24h-8l-16-24h-24l24 96z" fill="#f7c04a"/><rect fill="#f5a431" height="16" rx="8" width="160" x="296" y="424.032"/><path d="m424 392.032-24-32h-104l-24 32z" fill="#f5a431"/><path d="m112 280.032h24v40h-24z" fill="#ffbfa1"/><path d="m304 317.21a5.22413 5.22413 0 0 1 -2.32007 4.33984l-21.67993 14.45016-5.87988 9.41016-24.44019 39.09961a32.9551 32.9551 0 0 1 -58.24-4.48975l-15.43993-36.02002v80h-104l-.01-103.99023a16.01246 16.01246 0 0 1 16.01-16.00977h90.8999a31.99967 31.99967 0 0 1 29.41016 19.39014l15.68994 36.60986 24-32a15.99564 15.99564 0 0 1 16-16h34.79a5.18981 5.18981 0 0 1 5.21 5.21z" fill="#ffceb6"/><path d="m274.12012 345.41016-24.44019 39.09961a32.9551 32.9551 0 0 1 -58.24-4.48975l-15.43993-36.02002v80h-104l-.01-103.99023a16.01246 16.01246 0 0 1 16.01-16.00977h90.8999a31.99967 31.99967 0 0 1 29.41016 19.39014l15.68994 36.60986 24-32z" fill="#ed6445"/><path d="m136 496.032-8-32-16 32h-40v-72h104v72z" fill="#445496"/><path d="m136 336.032 8 40-16 16-16-16 8-40z" fill="#f7c04a"/><path d="m120 336.032-8-16 16-8 16 8-8 16z" fill="#f5a431"/><rect fill="#f5a431" height="16" rx="8" width="40" x="240" y="424.032"/><path d="m144 256.03212v32a16 16 0 0 1 -16 16 16 16 0 0 1 -16-16v-32z" fill="#ffceb6"/><path d="m112 280.03212-5.95016-11.90032a19.41644 19.41644 0 0 1 -2.04984-8.68327 19.41638 19.41638 0 0 1 19.41639-19.41639h36.58361v9.37261a22.62741 22.62741 0 0 1 -22.62741 22.6274 22.62741 22.62741 0 0 1 -16-6.62742l-1.37259-1.3726-8 16z" fill="#b36f42"/><path d="m94.7 448h-6.7l8 16-11.8999 5.9502a19.4138 19.4138 0 0 1 -25.6501-7.9302l-13.78-24.81982-13.29-23.92041a58.61626 58.61626 0 0 1 1.53-59.53956l21.6901-34.70021a31.99256 31.99256 0 0 1 27.1399-15.04h6.26v40l-24 40 13.41992 33.5498 2.58008 6.4502 17.64014 5.87988a9.29832 9.29832 0 0 1 -2.94014 18.12012z" fill="#ffceb6"/><path d="m88 344-24 40 13.41992 33.5498-32.75 19.6504-13.29-23.92041a58.61626 58.61626 0 0 1 1.53-59.53956l21.69018-34.70023a31.99256 31.99256 0 0 1 27.1399-15.04h14.26v40z" fill="#ed6445"/><g fill="#de402f"><rect height="16.001" rx="8" transform="matrix(.514 -.857 .857 .514 -267.577 242.086)" width="31.111" x="64.441" y="349.338"/><path d="m159.99979 328.0324a7.9997 7.9997 0 0 1 -11.1995 1.59987l-20.80029-15.60015-20.80028 15.60016a7.9997 7.9997 0 0 1 -11.1995-1.59987 7.99969 7.99969 0 0 1 1.6003-11.2l17.06941-12.80033h26.66016l17.06941 12.80033a7.99969 7.99969 0 0 1 1.60029 11.19999z"/></g></svg>